<?xml version="1.0" standalone="no"?>
<!DOCTYPE svg PUBLIC "-//W3C//DTD SVG 20010904//EN"
 "http://www.w3.org/TR/2001/REC-SVG-20010904/DTD/svg10.dtd">
<svg version="1.0" xmlns="http://www.w3.org/2000/svg"
 width="768.000000pt" height="576.000000pt" viewBox="0 0 768.000000 576.000000"
 preserveAspectRatio="xMidYMid meet">

<g transform="translate(0.000000,576.000000) scale(0.100000,-0.100000)"
fill="#000000" stroke="none">
<path d="M3200 4179 c-202 -23 -359 -69 -523 -150 -429 -214 -733 -601 -833
-1060 -27 -123 -27 -126 -31 -601 -4 -421 -3 -480 12 -507 33 -64 15 -62 531
-59 l469 3 93 32 c269 91 468 303 543 578 20 72 23 111 27 386 l4 306 71 13
c163 28 528 22 615 -11 l22 -9 0 -293 c0 -280 1 -299 25 -391 73 -290 301
-518 592 -592 94 -24 102 -24 538 -24 439 0 443 0 470 22 55 43 56 55 54 481
-2 406 -7 503 -35 647 -99 510 -486 960 -984 1143 -115 42 -247 72 -393 87
-142 15 -191 8 -234 -35 l-33 -33 0 -364 c0 -201 -2 -367 -5 -369 -2 -3 -46 1
-97 7 -160 21 -468 15 -585 -11 l-23 -5 0 357 c0 321 -2 362 -18 393 -33 66
-93 79 -272 59z m30 -567 l0 -308 -57 -18 c-159 -50 -375 -164 -536 -283 -92
-69 -117 -101 -117 -153 0 -116 117 -167 216 -95 139 99 240 162 339 210 61
29 120 56 133 60 l22 6 0 -238 c0 -264 -7 -309 -62 -423 -43 -89 -168 -213
-261 -258 -116 -57 -168 -63 -525 -60 l-317 3 1 355 c0 295 3 370 18 445 79
407 334 752 686 930 141 71 335 132 428 134 l32 1 0 -308z m1421 274 c105 -29
225 -77 307 -122 145 -82 322 -242 424 -385 64 -89 140 -244 177 -363 52 -164
61 -251 61 -628 l0 -338 -323 0 c-363 0 -417 7 -540 72 -89 47 -193 155 -240
248 -56 113 -67 180 -67 438 0 200 2 222 17 222 50 0 320 -153 502 -285 39
-28 85 -32 136 -11 59 25 84 111 50 176 -43 84 -360 274 -617 371 l-88 32 0
305 0 305 59 -7 c32 -4 96 -17 142 -30z"/>
</g>
</svg>
