<?xml version="1.0" standalone="no"?>
<!DOCTYPE svg PUBLIC "-//W3C//DTD SVG 20010904//EN"
 "http://www.w3.org/TR/2001/REC-SVG-20010904/DTD/svg10.dtd">
<svg version="1.0" xmlns="http://www.w3.org/2000/svg"
 width="30.000000pt" height="30.000000pt" viewBox="0 0 30.000000 30.000000"
 preserveAspectRatio="xMidYMid meet">

<g transform="translate(0.000000,30.000000) scale(0.100000,-0.100000)"
fill="#000000" stroke="none">
<path d="M74 225 c-23 -13 -49 -36 -58 -50 -20 -31 -11 -53 41 -92 30 -23 47
-28 93 -28 46 0 63 5 93 28 52 40 62 61 41 92 -23 36 -94 75 -135 75 -19 0
-53 -11 -75 -25z m123 -27 c29 -27 29 -65 1 -95 -27 -29 -65 -29 -95 -1 -29
27 -29 65 -1 95 27 29 65 29 95 1z"/>
<path d="M124 166 c-10 -26 4 -48 28 -44 17 2 23 10 23 28 0 18 -6 26 -23 28
-13 2 -25 -3 -28 -12z"/>
</g>
</svg>
