<svg xmlns="http://www.w3.org/2000/svg" xmlns:xlink="http://www.w3.org/1999/xlink" version="1.1" x="0px" y="0px" viewBox="0 0 100 125" style="enable-background:new 0 0 100 100;" xml:space="preserve"><g><g><path d="M50,75.2836914c-25.684082,0-46.0195312-22.6630859-46.8730469-23.6274414    c-0.8359375-0.9458008-0.8359375-2.3666992,0-3.3125C3.9804688,47.3793945,24.315918,24.7163086,50,24.7163086    S96.0195312,47.3793945,96.8730469,48.34375c0.8359375,0.9458008,0.8359375,2.3666992,0,3.3125    C96.0195312,52.6206055,75.684082,75.2836914,50,75.2836914z M8.4643555,50    C13.5864258,55.1118164,30.4394531,70.2836914,50,70.2836914S86.4135742,55.1118164,91.5356445,50    C86.4135742,44.8881836,69.5605469,29.7163086,50,29.7163086S13.5864258,44.8881836,8.4643555,50z"/></g><g><path d="M50,66.8886719C40.6875,66.8886719,33.1113281,59.3125,33.1113281,50S40.6875,33.1113281,50,33.1113281    S66.8886719,40.6875,66.8886719,50S59.3125,66.8886719,50,66.8886719z M50,38.1113281    c-6.5556641,0-11.8886719,5.3330078-11.8886719,11.8886719S43.4443359,61.8886719,50,61.8886719    S61.8886719,56.5556641,61.8886719,50S56.5556641,38.1113281,50,38.1113281z"/></g></g><text x="0" y="115" fill="#000000" font-size="5px" font-weight="bold" font-family="'Helvetica Neue', Helvetica, Arial-Unicode, Arial, Sans-serif">Created by noah</text><text x="0" y="120" fill="#000000" font-size="5px" font-weight="bold" font-family="'Helvetica Neue', Helvetica, Arial-Unicode, Arial, Sans-serif">from the Noun Project</text></svg>