<svg width="19" height="21" viewBox="0 0 19 21" fill="none" xmlns="http://www.w3.org/2000/svg">
<path fill-rule="evenodd" clip-rule="evenodd" d="M9.30758 0C8.42881 0 6.96039 0.337496 5.57856 0.713199C4.1649 1.09527 2.73978 1.54739 1.90177 1.82121C1.5514 1.93691 1.24077 2.14911 1.00558 2.43341C0.770381 2.71772 0.620156 3.06261 0.572158 3.42845C-0.18689 9.13023 1.57446 13.3559 3.71151 16.1514C4.61776 17.3473 5.69831 18.4003 6.91709 19.2755C7.40868 19.6232 7.86462 19.8893 8.25179 20.0715C8.60839 20.2396 8.99173 20.3771 9.30758 20.3771C9.62342 20.3771 10.0055 20.2396 10.3634 20.0715C10.8301 19.8446 11.2766 19.5783 11.6981 19.2755C12.9169 18.4004 13.9974 17.3473 14.9036 16.1514C17.0407 13.3559 18.802 9.13023 18.043 3.42845C17.9951 3.06243 17.8449 2.71734 17.6097 2.43282C17.3745 2.14829 17.0639 1.93587 16.7134 1.81993C15.4969 1.42107 14.2709 1.05162 13.0366 0.711926C11.6548 0.33877 10.1863 0 9.30758 0ZM9.30758 6.36785C9.75873 6.36718 10.1956 6.5262 10.5407 6.81674C10.8858 7.10728 11.117 7.51059 11.1933 7.95525C11.2696 8.3999 11.186 8.8572 10.9574 9.24615C10.7288 9.6351 10.3699 9.9306 9.94436 10.0803L10.4347 12.6147C10.4525 12.7069 10.4498 12.8019 10.4266 12.8929C10.4034 12.9839 10.3604 13.0686 10.3007 13.141C10.2409 13.2134 10.1659 13.2717 10.0809 13.3117C9.99599 13.3518 9.90325 13.3725 9.80936 13.3725H8.80579C8.71201 13.3723 8.61942 13.3514 8.53464 13.3113C8.44987 13.2712 8.37499 13.2129 8.31537 13.1405C8.25575 13.0681 8.21286 12.9835 8.18976 12.8926C8.16666 12.8017 8.16392 12.7068 8.18174 12.6147L8.67079 10.0803C8.24521 9.9306 7.88634 9.6351 7.65775 9.24615C7.42916 8.8572 7.3456 8.3999 7.42187 7.95525C7.49814 7.51059 7.72932 7.10728 8.07446 6.81674C8.4196 6.5262 8.85643 6.36718 9.30758 6.36785Z" fill="#27B4EF"/>
</svg>
