<svg width="20" height="20" viewBox="0 0 20 20" fill="none" xmlns="http://www.w3.org/2000/svg">
<path d="M10.3333 0C9.30314 0 8.29616 0.305463 7.43966 0.877762C6.58315 1.45006 5.91559 2.26349 5.52138 3.21519C5.12717 4.16689 5.02403 5.21411 5.225 6.22443C5.42596 7.23475 5.92201 8.16278 6.6504 8.89118C7.3788 9.61958 8.30684 10.1156 9.31716 10.3166C10.3275 10.5176 11.3747 10.4144 12.3264 10.0202C13.2781 9.626 14.0915 8.95843 14.6638 8.10193C15.2361 7.24542 15.5416 6.23844 15.5416 5.20833C15.5416 3.827 14.9929 2.50224 14.0161 1.52549C13.0393 0.548733 11.7146 0 10.3333 0ZM10.3333 8.33333C9.71519 8.33333 9.111 8.15005 8.59709 7.80668C8.08319 7.4633 7.68265 6.97524 7.44613 6.40422C7.2096 5.8332 7.14772 5.20487 7.2683 4.59868C7.38888 3.99249 7.6865 3.43566 8.12354 2.99862C8.56058 2.56159 9.1174 2.26396 9.72359 2.14338C10.3298 2.0228 10.9581 2.08469 11.5291 2.32121C12.1002 2.55773 12.5882 2.95827 12.9316 3.47218C13.275 3.98608 13.4583 4.59027 13.4583 5.20833C13.4583 6.03713 13.129 6.83199 12.543 7.41804C11.9569 8.00409 11.1621 8.33333 10.3333 8.33333ZM19.7083 19.7917V18.75C19.7083 16.8161 18.94 14.9615 17.5726 13.594C16.2051 12.2266 14.3505 11.4583 12.4166 11.4583H8.24992C6.31605 11.4583 4.46138 12.2266 3.09393 13.594C1.72648 14.9615 0.958252 16.8161 0.958252 18.75V19.7917H3.04159V18.75C3.04159 17.3687 3.59032 16.0439 4.56707 15.0672C5.54382 14.0904 6.86858 13.5417 8.24992 13.5417H12.4166C13.7979 13.5417 15.1227 14.0904 16.0994 15.0672C17.0762 16.0439 17.6249 17.3687 17.6249 18.75V19.7917H19.7083Z" fill="#27B4EF"/>
</svg>
