<svg width="19" height="20" viewBox="0 0 19 20" fill="none" xmlns="http://www.w3.org/2000/svg">
<path d="M17.8297 19.5866C7.8751 19.6006 0.319587 11.9553 0.330089 2.087C0.330089 1.44172 0.852849 0.916626 1.49696 0.916626H4.57751C5.15511 0.916626 5.64637 1.34137 5.73155 1.91314C5.93471 3.28428 6.33356 4.61917 6.91593 5.87701L7.03612 6.13605C7.11685 6.31037 7.13422 6.5074 7.08522 6.69316C7.03623 6.87891 6.92394 7.04175 6.76774 7.15357C5.81323 7.83502 5.44917 9.2061 6.19247 10.275C7.1248 11.6169 8.29984 12.7931 9.64175 13.7254C10.7118 14.4675 12.0828 14.1035 12.7631 13.1501C12.8748 12.9935 13.0378 12.8808 13.2238 12.8315C13.4099 12.7823 13.6072 12.7997 13.7818 12.8806L14.0397 12.9996C15.2976 13.583 16.6325 13.9821 18.0036 14.1852C18.5753 14.2703 19.0001 14.7616 19.0001 15.3404V18.4197C19.0001 18.5731 18.9699 18.7249 18.9111 18.8666C18.8524 19.0082 18.7664 19.1369 18.6579 19.2453C18.5494 19.3536 18.4206 19.4396 18.2789 19.4981C18.1372 19.5567 17.9854 19.5868 17.832 19.5866H17.8297Z" fill="#27B4EF"/>
</svg>
