<?xml version="1.0" encoding="UTF-8"?>
<!DOCTYPE svg PUBLIC "-//W3C//DTD SVG 1.1//EN" "http://www.w3.org/Graphics/SVG/1.1/DTD/svg11.dtd">
<svg xmlns="http://www.w3.org/2000/svg" version="1.1" width="512px" height="512px" style="shape-rendering:geometricPrecision; text-rendering:geometricPrecision; image-rendering:optimizeQuality; fill-rule:evenodd; clip-rule:evenodd" xmlns:xlink="http://www.w3.org/1999/xlink">
<g><path style="opacity:0.995" fill="#00c7c7" d="M 232.5,-0.5 C 247.833,-0.5 263.167,-0.5 278.5,-0.5C 368.144,10.3879 435.644,54.7213 481,132.5C 497.695,163.971 507.861,197.304 511.5,232.5C 511.5,240.5 511.5,248.5 511.5,256.5C 473.701,219.201 436.035,181.701 398.5,144C 397.906,143.536 397.239,143.369 396.5,143.5C 359.956,99.7313 312.956,77.0647 255.5,75.5C 186.597,77.9903 134.097,108.324 98,166.5C 73.0838,211.924 67.7504,259.591 82,309.5C 93.2409,345.34 113.408,375.007 142.5,398.5C 142.369,399.239 142.536,399.906 143,400.5C 180.035,437.368 216.868,474.368 253.5,511.5C 246.5,511.5 239.5,511.5 232.5,511.5C 142.856,500.612 75.3562,456.279 30,378.5C 13.3053,347.029 3.1386,313.696 -0.5,278.5C -0.5,263.167 -0.5,247.833 -0.5,232.5C 10.3875,142.857 54.7208,75.3573 132.5,30C 163.971,13.3053 197.304,3.1386 232.5,-0.5 Z"/></g>
<g><path style="opacity:1" fill="#626978" d="M 255.5,75.5 C 255.5,85.5 255.5,95.5 255.5,105.5C 191.773,108.099 145.606,137.766 117,194.5C 93.6106,253.822 101.944,308.156 142,357.5C 175.024,393.015 215.857,409.681 264.5,407.5C 261.713,408.477 258.713,408.81 255.5,408.5C 255.5,418.167 255.5,427.833 255.5,437.5C 213.247,437.417 175.581,424.417 142.5,398.5C 113.408,375.007 93.2409,345.34 82,309.5C 67.7504,259.591 73.0838,211.924 98,166.5C 134.097,108.324 186.597,77.9903 255.5,75.5 Z"/></g>
<g><path style="opacity:1" fill="#404952" d="M 255.5,75.5 C 312.956,77.0647 359.956,99.7313 396.5,143.5C 421.666,175.315 434.999,211.649 436.5,252.5C 443.833,245.5 451.167,238.5 458.5,231.5C 465.652,238.152 472.652,244.985 479.5,252C 460,271.5 440.5,291 421,310.5C 401.5,291 382,271.5 362.5,252C 369.348,244.985 376.348,238.152 383.5,231.5C 391.152,238.652 398.652,245.985 406,253.5C 404.07,205.139 384.237,165.973 346.5,136C 319.404,116.357 289.071,106.19 255.5,105.5C 255.5,95.5 255.5,85.5 255.5,75.5 Z"/></g>
<g><path style="opacity:1" fill="#1cacb4" d="M 255.5,105.5 C 289.071,106.19 319.404,116.357 346.5,136C 384.237,165.973 404.07,205.139 406,253.5C 398.652,245.985 391.152,238.652 383.5,231.5C 376.348,238.152 369.348,244.985 362.5,252C 382,271.5 401.5,291 421,310.5C 440.5,291 460,271.5 479.5,252C 472.652,244.985 465.652,238.152 458.5,231.5C 451.167,238.5 443.833,245.5 436.5,252.5C 434.999,211.649 421.666,175.315 396.5,143.5C 397.239,143.369 397.906,143.536 398.5,144C 436.035,181.701 473.701,219.201 511.5,256.5C 511.5,263.833 511.5,271.167 511.5,278.5C 500.612,368.144 456.279,435.644 378.5,481C 347.029,497.695 313.696,507.861 278.5,511.5C 270.167,511.5 261.833,511.5 253.5,511.5C 216.868,474.368 180.035,437.368 143,400.5C 142.536,399.906 142.369,399.239 142.5,398.5C 175.581,424.417 213.247,437.417 255.5,437.5C 316.249,436.127 364.915,411.46 401.5,363.5C 393.915,357.461 386.081,351.794 378,346.5C 355.253,375.214 326.086,394.38 290.5,404C 281.9,405.754 273.233,406.921 264.5,407.5C 215.857,409.681 175.024,393.015 142,357.5C 101.944,308.156 93.6106,253.822 117,194.5C 145.606,137.766 191.773,108.099 255.5,105.5 Z"/></g>
<g><path style="opacity:1" fill="#fdfefe" d="M 255.5,124.5 C 255.5,136.5 255.5,148.5 255.5,160.5C 253.901,160.232 252.568,160.566 251.5,161.5C 237.162,163.999 227.996,172.332 224,186.5C 223.5,199.162 223.333,211.829 223.5,224.5C 211.167,224.5 198.833,224.5 186.5,224.5C 186.333,210.829 186.5,197.163 187,183.5C 195.254,146.737 218.087,127.07 255.5,124.5 Z"/></g>
<g><path style="opacity:1" fill="#e8ecf4" d="M 255.5,124.5 C 290.857,126.351 313.357,144.351 323,178.5C 324.379,193.794 324.879,209.127 324.5,224.5C 312.167,224.5 299.833,224.5 287.5,224.5C 287.667,211.829 287.5,199.162 287,186.5C 281.88,168.686 270.046,160.353 251.5,161.5C 252.568,160.566 253.901,160.232 255.5,160.5C 255.5,148.5 255.5,136.5 255.5,124.5 Z"/></g>
<g><path style="opacity:1" fill="#1eadb5" d="M 251.5,161.5 C 270.046,160.353 281.88,168.686 287,186.5C 287.5,199.162 287.667,211.829 287.5,224.5C 276.833,224.5 266.167,224.5 255.5,224.5C 244.833,224.5 234.167,224.5 223.5,224.5C 223.333,211.829 223.5,199.162 224,186.5C 227.996,172.332 237.162,163.999 251.5,161.5 Z"/></g>
<g><path style="opacity:1" fill="#fdcd03" d="M 186.5,224.5 C 198.833,224.5 211.167,224.5 223.5,224.5C 234.167,224.5 244.833,224.5 255.5,224.5C 255.5,238.833 255.5,253.167 255.5,267.5C 249.5,267.5 243.5,267.5 237.5,267.5C 237.5,287.5 237.5,307.5 237.5,327.5C 243.5,327.5 249.5,327.5 255.5,327.5C 255.5,337.833 255.5,348.167 255.5,358.5C 228.167,358.5 200.833,358.5 173.5,358.5C 173.5,313.833 173.5,269.167 173.5,224.5C 177.833,224.5 182.167,224.5 186.5,224.5 Z"/></g>
<g><path style="opacity:1" fill="#fcb912" d="M 255.5,224.5 C 266.167,224.5 276.833,224.5 287.5,224.5C 299.833,224.5 312.167,224.5 324.5,224.5C 328.5,224.5 332.5,224.5 336.5,224.5C 336.5,269.167 336.5,313.833 336.5,358.5C 309.5,358.5 282.5,358.5 255.5,358.5C 255.5,348.167 255.5,337.833 255.5,327.5C 261.5,327.5 267.5,327.5 273.5,327.5C 273.5,307.5 273.5,287.5 273.5,267.5C 267.5,267.5 261.5,267.5 255.5,267.5C 255.5,253.167 255.5,238.833 255.5,224.5 Z"/></g>
<g><path style="opacity:1" fill="#404851" d="M 255.5,267.5 C 255.5,287.5 255.5,307.5 255.5,327.5C 249.5,327.5 243.5,327.5 237.5,327.5C 237.5,307.5 237.5,287.5 237.5,267.5C 243.5,267.5 249.5,267.5 255.5,267.5 Z"/></g>
<g><path style="opacity:1" fill="#22272a" d="M 255.5,267.5 C 261.5,267.5 267.5,267.5 273.5,267.5C 273.5,287.5 273.5,307.5 273.5,327.5C 267.5,327.5 261.5,327.5 255.5,327.5C 255.5,307.5 255.5,287.5 255.5,267.5 Z"/></g>
<g><path style="opacity:1" fill="#404952" d="M 255.5,437.5 C 255.5,427.833 255.5,418.167 255.5,408.5C 258.713,408.81 261.713,408.477 264.5,407.5C 273.233,406.921 281.9,405.754 290.5,404C 326.086,394.38 355.253,375.214 378,346.5C 386.081,351.794 393.915,357.461 401.5,363.5C 364.915,411.46 316.249,436.127 255.5,437.5 Z"/></g>
<g><path style="opacity:1" fill="#78b375" d="M 336.5,224.5 C 337.499,269.33 337.832,314.33 337.5,359.5C 282.664,359.832 227.997,359.499 173.5,358.5C 200.833,358.5 228.167,358.5 255.5,358.5C 282.5,358.5 309.5,358.5 336.5,358.5C 336.5,313.833 336.5,269.167 336.5,224.5 Z"/></g>
</svg>
