<svg width="342" height="239" viewBox="0 0 342 239" fill="none" xmlns="http://www.w3.org/2000/svg">
<g clip-path="url(#clip0_1_253)">
<path opacity="0.1" d="M113.701 238.866C130.356 238.866 143.858 236.726 143.858 234.087C143.858 231.448 130.356 229.309 113.701 229.309C97.0456 229.309 83.5439 231.448 83.5439 234.087C83.5439 236.726 97.0456 238.866 113.701 238.866Z" fill="#27B4EF"/>
<path opacity="0.1" d="M277.629 239C298.412 239 315.26 236.861 315.26 234.221C315.26 231.582 298.412 229.443 277.629 229.443C256.846 229.443 239.998 231.582 239.998 234.221C239.998 236.861 256.846 239 277.629 239Z" fill="#27B4EF"/>
<path opacity="0.1" d="M4.28339 103.265H35.6936V145.502H6.58291C6.50554 145.936 6.43126 146.373 6.35079 146.809H35.6936V180.873C35.641 180.858 35.5946 180.839 35.5451 180.821C34.7156 180.497 33.8924 180.155 33.0692 179.789L32.543 179.554C31.7177 179.169 30.8924 178.762 30.0671 178.332C29.7793 178.183 29.4914 178.027 29.2067 177.868C24.6249 175.336 20.4627 172.128 16.8642 168.354C16.759 168.253 16.6599 168.146 16.5547 168.049C16.0533 167.511 15.5612 166.968 15.0846 166.412L14.5585 165.801C13.9952 165.12 13.4505 164.421 12.9213 163.713C12.8439 163.609 12.7696 163.505 12.6892 163.408C10.5368 160.463 8.74966 157.275 7.36592 153.912C7.32259 153.811 7.28545 153.701 7.24522 153.606C6.82019 152.527 6.44364 151.438 6.11558 150.339C5.97321 149.878 5.83704 149.423 5.71943 148.944C5.6761 148.803 5.63896 148.666 5.60492 148.528C3.84701 141.759 3.63965 134.727 3.63965 127.744C3.63965 126.929 3.63965 126.111 3.63965 125.301C3.63965 122.477 3.67369 119.634 3.72321 116.795C3.72321 116.059 3.75416 115.326 3.76963 114.587C3.81296 112.712 3.87486 110.838 3.95533 108.963C3.9739 108.441 3.99866 107.922 4.02651 107.402C4.02651 107.103 4.04199 106.804 4.07294 106.505C4.14721 105.418 4.20911 104.34 4.28339 103.265Z" fill="#27B4EF"/>
<path opacity="0.1" d="M35.6937 56.237H18.4644C21.2651 51.9121 24.3252 47.7562 27.6284 43.7914C30.1879 40.6892 32.8897 37.6663 35.6937 34.7534V56.237Z" fill="#27B4EF"/>
<path opacity="0.1" d="M35.6935 57.5439V101.958H4.38232C4.38232 101.83 4.40399 101.699 4.41327 101.571C4.44113 101.219 4.46898 100.868 4.49993 100.52C4.53397 100.111 4.57111 99.6989 4.61135 99.2989C4.65158 98.8989 4.69491 98.4103 4.74133 97.9676C4.78776 97.5249 4.83109 97.076 4.8837 96.6333C4.93631 96.1905 4.98274 95.7478 5.03844 95.3081C5.09415 94.8684 5.14367 94.4226 5.20248 93.9829C5.2489 93.6165 5.29842 93.2532 5.34793 92.8868C5.41912 92.3708 5.4934 91.8517 5.57386 91.3387C5.57386 91.2624 5.59553 91.183 5.60791 91.1097C6.17279 87.3546 6.94247 83.6322 7.91361 79.9588C8.93017 76.1054 10.2283 72.3297 11.7977 68.6613C13.4658 64.8237 15.4188 61.1129 17.6409 57.5592L35.6935 57.5439Z" fill="#27B4EF"/>
<path opacity="0.1" d="M43.1926 103.262V145.503H110.281V103.262H43.1926ZM43.1926 146.807V183.081C43.5764 183.16 43.9571 183.236 44.3346 183.301C44.8484 183.398 45.3591 183.487 45.8821 183.563C45.9811 183.578 46.0833 183.594 46.1916 183.603C46.3959 183.636 46.6063 183.664 46.8106 183.691C47.3274 183.762 47.8412 183.82 48.358 183.865C48.6025 183.89 48.8501 183.911 49.0977 183.93L49.695 183.975C50.02 184 50.3419 184.018 50.6606 184.027C50.8587 184.027 51.0568 184.046 51.2611 184.052C51.4158 184.052 51.5705 184.052 51.7315 184.052C51.8924 184.052 52.1214 184.052 52.3164 184.052C52.5826 184.052 52.8487 184.052 53.1118 184.052H53.4677C53.7339 184.052 54.0001 184.052 54.2631 184.027H54.2817C54.4643 184.027 54.65 184.027 54.8357 184.003C54.8872 184.006 54.9389 184.006 54.9904 184.003C55.1452 184.003 55.2999 184.003 55.4485 183.981H55.5568L56.5936 183.902C56.934 183.872 57.2776 183.832 57.6242 183.795L58.3298 183.713C61.2006 183.316 64.0395 182.72 66.8254 181.93C73.0833 180.207 79.205 177.798 85.4598 176.034C93.5468 173.759 102.482 172.641 110.296 175.423V146.807H43.1926ZM110.281 56.2373V0.00328446C102.936 -0.0752251 95.6109 0.772332 88.4835 2.52537C71.4956 6.73598 56.2531 15.8686 43.1926 27.5325V56.2343H46.5599V57.5381H43.1926V101.959H110.281V57.5411H60.3849V56.2373H110.281ZM196.453 37.2423C192.25 37.0957 188.072 35.7828 184.293 33.7553C177.066 29.8775 171.294 23.8899 164.844 18.8365C151.443 8.31152 134.824 1.9605 117.774 0.384957V56.2373H213.546L213.784 55.99L196.453 37.2423ZM205.177 35.7156L214.428 45.7307V33.0897C211.33 33.4683 208.616 34.369 205.19 35.7034L205.177 35.7156ZM214.428 192.088V146.807H194.716C194.664 146.614 194.611 146.419 194.549 146.223C194.608 146.419 194.658 146.614 194.713 146.807H117.786V179.554C118.517 180.088 119.238 180.65 119.953 181.221C120.723 181.832 121.485 182.476 122.249 183.108L123.02 183.737C123.388 184.043 123.759 184.348 124.134 184.635C124.877 185.229 125.627 185.816 126.384 186.394C126.758 186.699 127.142 186.974 127.523 187.261C133.566 191.819 139.941 195.933 146.597 199.569C148.088 200.383 149.594 201.178 151.112 201.954C152.124 202.464 153.142 202.97 154.164 203.462C155.699 204.201 157.246 204.913 158.806 205.599C173.187 211.968 188.394 216.339 203.992 218.585C207.456 219.09 210.934 219.487 214.425 219.776V192.085H214.734L214.428 192.088ZM117.786 57.5411V101.959H214.44V57.5411H117.786ZM117.786 103.262V145.503H214.44V103.262H117.786ZM221.942 33.0347V47.1352L233.749 34.3538C229.837 33.7309 225.902 33.2861 221.942 33.0194V33.0347ZM221.942 103.278V145.503H315.95V103.262L221.942 103.278ZM315.607 195.441L315.938 146.807H221.942V220.262C227.997 220.513 234.062 220.441 240.109 220.048H240.215C243.103 219.869 245.978 219.608 248.84 219.266H248.905C264.173 217.513 279.101 213.583 293.224 207.599L315.607 195.441ZM334.077 110.218C333.724 109.397 333.356 108.581 332.981 107.775C332.282 106.249 331.542 104.765 330.781 103.281H323.446V145.503H341.991C341.981 133.546 338.914 121.332 334.086 110.203L334.077 110.218ZM323.446 146.822V188.653C328.67 183.713 333.084 178.061 336.262 171.6C340.084 163.82 341.833 155.396 341.975 146.816L323.446 146.822ZM323.446 90.9695V101.962H330.094C328.083 98.1777 325.867 94.5032 323.455 90.9542L323.446 90.9695ZM259.691 41.3216C259.202 41.1384 258.713 40.9521 258.221 40.772C253.031 38.8811 247.727 37.3087 242.341 36.0637L224.273 55.6266L223.926 55.99L224.158 56.2404H288.464C279.508 50.1582 269.853 45.1452 259.7 41.3063L259.691 41.3216ZM290.349 57.5564H223.261L221.942 58.7472V101.959H233.499H233.517H315.963V81.0277C308.505 72.1289 299.896 64.2328 290.358 57.5411L290.349 57.5564Z" fill="#27B4EF"/>
<path opacity="0.1" d="M35.6935 79.9465V101.958H4.38232C4.38232 101.83 4.40399 101.699 4.41327 101.571C4.44113 101.219 4.46898 100.868 4.49993 100.52C4.53397 100.111 4.57111 99.6988 4.61135 99.2988C4.65158 98.8988 4.69491 98.4103 4.74133 97.9676C4.78776 97.5248 4.83109 97.076 4.8837 96.6332C4.93631 96.1905 4.98274 95.7477 5.03844 95.3081C5.09415 94.8684 5.14367 94.4226 5.20248 93.9829C5.2489 93.6165 5.29842 93.2531 5.34793 92.8867C5.41912 92.3707 5.4934 91.8516 5.57386 91.3387C5.57386 91.2623 5.59553 91.183 5.60791 91.1097C6.17279 87.3545 6.94247 83.6321 7.91361 79.9587L35.6935 79.9465Z" fill="#27B4EF"/>
<path opacity="0.1" d="M4.28339 103.265H35.6936V145.502H6.58291C6.50554 145.936 6.43126 146.373 6.35079 146.809H35.6936V180.873C35.641 180.858 35.5946 180.839 35.5451 180.821C34.7156 180.497 33.8924 180.155 33.0692 179.789L32.543 179.554C31.7177 179.169 30.8924 178.762 30.0671 178.332C29.7793 178.183 29.4914 178.027 29.2067 177.868C24.6249 175.336 20.4627 172.128 16.8642 168.354C16.759 168.253 16.6599 168.146 16.5547 168.049C16.0533 167.511 15.5612 166.968 15.0846 166.412L14.5585 165.801C13.9952 165.12 13.4505 164.421 12.9213 163.713C12.8439 163.609 12.7696 163.505 12.6892 163.408C10.5368 160.463 8.74966 157.275 7.36592 153.912C7.32259 153.811 7.28545 153.701 7.24522 153.606C6.82019 152.527 6.44364 151.438 6.11558 150.339C5.97321 149.878 5.83704 149.423 5.71943 148.944C5.6761 148.803 5.63896 148.666 5.60492 148.528C3.84701 141.759 3.63965 134.727 3.63965 127.744C3.63965 126.929 3.63965 126.111 3.63965 125.301C3.63965 122.477 3.67369 119.634 3.72321 116.795C3.72321 116.059 3.75416 115.326 3.76963 114.587C3.81296 112.712 3.87486 110.838 3.95533 108.963C3.9739 108.441 3.99866 107.922 4.02651 107.402C4.02651 107.103 4.04199 106.804 4.07294 106.505C4.14721 105.418 4.20911 104.34 4.28339 103.265Z" fill="#27B4EF"/>
<path opacity="0.1" d="M66.8099 63.9011V101.958H43.1926V63.9011H46.5599V51.0159H60.3818V63.9011H66.8099Z" fill="#27B4EF"/>
<path opacity="0.1" d="M66.8097 103.262H43.1956V145.5H66.8097V103.262Z" fill="#27B4EF"/>
<path opacity="0.1" d="M43.1926 146.809H66.8099V181.923C64.024 182.713 61.1851 183.308 58.3144 183.703L57.6087 183.789C57.2621 183.828 56.9186 183.862 56.5781 183.896C56.2377 183.929 55.8849 183.954 55.5413 183.975H55.433C55.2844 183.975 55.1235 183.993 54.978 183.996H54.8202C54.6345 183.996 54.4488 184.015 54.2631 184.021C54.0001 184.036 53.737 184.039 53.4677 184.042C53.3532 184.042 53.2449 184.042 53.1304 184.042C52.8642 184.042 52.6012 184.042 52.335 184.042H51.7501C51.5922 184.042 51.4406 184.042 51.2765 184.042L50.6792 184.021C50.3697 184.021 50.0355 183.987 49.7136 183.966L49.1194 183.923L48.3797 183.856C47.8597 183.81 47.3429 183.752 46.8322 183.682L46.2133 183.596L45.9038 183.554C45.3869 183.474 44.8763 183.389 44.3563 183.291C43.9756 183.227 43.5981 183.148 43.2143 183.071L43.1926 146.809Z" fill="#27B4EF"/>
<path opacity="0.1" d="M214.44 59.4065H194.967V101.955H214.44V59.4065Z" fill="#27B4EF"/>
<path opacity="0.1" d="M214.443 103.262V145.503H117.786V127.283H169.27V138.031H194.967V103.262H214.443Z" fill="#27B4EF"/>
<path opacity="0.1" d="M214.75 192.097H214.44V219.807C210.953 219.516 207.477 219.12 204.01 218.619C188.405 216.365 173.191 211.985 158.806 205.605C154.653 203.761 150.584 201.748 146.6 199.566C139.945 195.928 133.568 191.814 127.523 187.258C126.004 186.11 124.505 184.935 123.026 183.734C122.001 182.9 120.983 182.045 119.953 181.215C119.238 180.644 118.517 180.082 117.786 179.545V146.81H194.71C194.658 146.614 194.605 146.419 194.549 146.226C194.608 146.419 194.664 146.614 194.716 146.81H214.44V192.079C214.545 192.082 214.648 192.091 214.75 192.097Z" fill="#27B4EF"/>
<path opacity="0.1" d="M265.228 56.2371H252.539V52.3471H258.227V40.7595C258.72 40.9366 259.211 41.1188 259.7 41.3061V52.3471H265.228V56.2371Z" fill="#27B4EF"/>
<path opacity="0.1" d="M295.799 101.958H233.505C233.505 101.958 233.505 101.958 233.526 101.974L233.499 101.958H221.942V59.4096H225.217V90.8594H240.18V72.2337H252.542V57.5439H265.231V72.246H277.592V90.8716H295.799V101.958Z" fill="#27B4EF"/>
<path opacity="0.1" d="M221.942 103.262V145.503H295.799V103.262H221.942ZM315.848 195.224L315.95 161.789H295.799V146.828H221.942V220.262C227.997 220.512 234.062 220.441 240.109 220.048H240.214C243.103 219.869 245.978 219.608 248.84 219.266H248.905C264.172 217.513 279.101 213.583 293.224 207.599" fill="#27B4EF"/>
<path opacity="0.1" d="M324.758 146.809H341.988C341.836 155.386 340.091 163.811 336.271 171.591C333.093 178.055 328.677 183.706 323.458 188.644V161.774H324.758V146.809Z" fill="#27B4EF"/>
<path opacity="0.1" d="M341.997 145.502H324.758V110.202H334.086C338.914 121.332 341.982 133.545 341.997 145.502Z" fill="#27B4EF"/>
<path opacity="0.1" d="M214.443 71.2354H204.01V84.5755H214.443V71.2354Z" fill="#27B4EF"/>
<path opacity="0.1" d="M214.443 98.8867H204.01V101.958H214.443V98.8867Z" fill="#27B4EF"/>
<path opacity="0.1" d="M214.443 103.262H204.01V112.224H214.443V103.262Z" fill="#27B4EF"/>
<path opacity="0.1" d="M214.443 126.538H204.01V139.878H214.443V126.538Z" fill="#27B4EF"/>
<path opacity="0.1" d="M214.443 154.189H204.01V167.53H214.443V154.189Z" fill="#27B4EF"/>
<path opacity="0.1" d="M214.44 192.079C214.545 192.079 214.647 192.079 214.75 192.097H214.44V195.196H204.01V181.841H214.44V192.079Z" fill="#27B4EF"/>
<path opacity="0.1" d="M214.44 209.486V219.791C210.953 219.5 207.477 219.104 204.01 218.603V209.486H214.44Z" fill="#27B4EF"/>
<path opacity="0.1" d="M162.498 144.522H117.786V145.503H162.498V144.522Z" fill="#27B4EF"/>
<path opacity="0.1" d="M162.498 146.806H117.786V150.562H162.498V146.806Z" fill="#27B4EF"/>
<path opacity="0.1" d="M162.498 162.873H117.786V168.913H162.498V162.873Z" fill="#27B4EF"/>
<path opacity="0.1" d="M162.495 181.224V187.264H127.523C126.004 186.12 124.504 184.945 123.023 183.74C121.998 182.907 120.983 182.052 119.949 181.224H162.495Z" fill="#27B4EF"/>
<path opacity="0.1" d="M162.495 199.572V205.605H158.803C154.654 203.759 150.586 201.745 146.6 199.562L162.495 199.572Z" fill="#27B4EF"/>
<path opacity="0.1" d="M248.914 107.357H240.113V116.04H248.914V107.357Z" fill="#27B4EF"/>
<path opacity="0.1" d="M58.3359 66.8965H49.5339V75.5803H58.3359V66.8965Z" fill="#27B4EF"/>
<path opacity="0.1" d="M58.3359 87.0671H49.5339V95.751H58.3359V87.0671Z" fill="#27B4EF"/>
<path opacity="0.1" d="M58.3359 107.238H49.5339V115.921H58.3359V107.238Z" fill="#27B4EF"/>
<path opacity="0.1" d="M58.3359 127.405H49.5339V136.089H58.3359V127.405Z" fill="#27B4EF"/>
<path opacity="0.1" d="M58.3359 147.576H49.5339V156.259H58.3359V147.576Z" fill="#27B4EF"/>
<path opacity="0.1" d="M58.3359 167.746H49.5339V176.43H58.3359V167.746Z" fill="#27B4EF"/>
<path opacity="0.1" d="M282.516 107.357H273.714V116.04H282.516V107.357Z" fill="#27B4EF"/>
<path opacity="0.1" d="M248.914 128.776H240.113V137.46H248.914V128.776Z" fill="#27B4EF"/>
<path opacity="0.1" d="M282.516 128.776H273.714V137.46H282.516V128.776Z" fill="#27B4EF"/>
<path opacity="0.1" d="M248.914 150.193H240.113V158.876H248.914V150.193Z" fill="#27B4EF"/>
<path opacity="0.1" d="M282.516 150.193H273.714V158.876H282.516V150.193Z" fill="#27B4EF"/>
<path opacity="0.1" d="M248.914 171.612H240.113V180.296H248.914V171.612Z" fill="#27B4EF"/>
<path opacity="0.1" d="M282.516 171.612H273.714V180.296H282.516V171.612Z" fill="#27B4EF"/>
<path opacity="0.1" d="M248.914 193.031H240.113V201.715H248.914V193.031Z" fill="#27B4EF"/>
<path opacity="0.1" d="M282.516 193.031H273.714V201.715H282.516V193.031Z" fill="#27B4EF"/>
<path opacity="0.1" d="M240.113 220.048V214.448H248.911V219.251L240.113 220.048Z" fill="#27B4EF"/>
<path opacity="0.1" d="M5.5708 91.1035V96.0714H35.6936V91.1035H5.5708ZM8.57286 95.7599H6.11551V91.4089H8.59143L8.57286 95.7599ZM11.5718 95.7599H9.0959V91.4089H11.5718V95.7599ZM14.5646 95.7599H12.0887V91.4089H14.5646V95.7599ZM17.5636 95.7599H15.0907V91.4089H17.5667L17.5636 95.7599ZM20.5594 95.7599H18.0835V91.4089H20.5594V95.7599ZM23.5584 95.7599H21.0825V91.4089H23.5584V95.7599ZM26.5574 95.7599H24.0815V91.4089H26.5574V95.7599ZM29.5533 95.7599H27.0773V91.4089H29.5533V95.7599ZM32.5491 95.7599H30.0732V91.4089H32.5491V95.7599ZM35.545 95.7599H33.0691V91.4089H35.545V95.7599Z" fill="#27B4EF"/>
<path opacity="0.1" d="M5.5708 105.558V110.526H35.6936V105.558H5.5708ZM8.57286 110.212H6.11551V105.873H8.59143L8.57286 110.212ZM11.5718 110.212H9.0959V105.873H11.5718V110.212ZM14.5646 110.212H12.0887V105.873H14.5646V110.212ZM17.5636 110.212H15.0907V105.873H17.5667L17.5636 110.212ZM20.5594 110.212H18.0835V105.873H20.5594V110.212ZM23.5584 110.212H21.0825V105.873H23.5584V110.212ZM26.5574 110.212H24.0815V105.873H26.5574V110.212ZM29.5533 110.212H27.0773V105.873H29.5533V110.212ZM32.5491 110.212H30.0732V105.873H32.5491V110.212ZM35.545 110.212H33.0691V105.873H35.545V110.212Z" fill="#27B4EF"/>
<path opacity="0.1" d="M5.5708 120.019V124.996H35.6936V120.019H5.5708ZM8.57286 124.672H6.11551V120.33H8.59143L8.57286 124.672ZM11.5718 124.672H9.0959V120.33H11.5718V124.672ZM14.5646 124.672H12.0887V120.33H14.5646V124.672ZM17.5636 124.672H15.0907V120.33H17.5667L17.5636 124.672ZM20.5594 124.672H18.0835V120.33H20.5594V124.672ZM23.5584 124.672H21.0825V120.33H23.5584V124.672ZM26.5574 124.672H24.0815V120.33H26.5574V124.672ZM29.5533 124.672H27.0773V120.33H29.5533V124.672ZM32.5491 124.672H30.0732V120.33H32.5491V124.672ZM35.545 124.672H33.0691V120.33H35.545V124.672Z" fill="#27B4EF"/>
<path opacity="0.1" d="M5.5708 134.48V139.442H35.6936V134.48H5.5708ZM8.57286 139.133H6.11551V134.788H8.59143L8.57286 139.133ZM11.5718 139.133H9.0959V134.788H11.5718V139.133ZM14.5646 139.133H12.0887V134.788H14.5646V139.133ZM17.5636 139.133H15.0907V134.788H17.5667L17.5636 139.133ZM20.5594 139.133H18.0835V134.788H20.5594V139.133ZM23.5584 139.133H21.0825V134.788H23.5584V139.133ZM26.5574 139.133H24.0815V134.788H26.5574V139.133ZM29.5533 139.133H27.0773V134.788H29.5533V139.133ZM32.5491 139.133H30.0732V134.788H32.5491V139.133ZM35.545 139.133H33.0691V134.788H35.545V139.133Z" fill="#27B4EF"/>
<path opacity="0.1" d="M5.70093 148.938C5.82163 149.405 5.9578 149.872 6.10017 150.333V149.249H8.5761V153.591H7.25148C7.29171 153.692 7.33194 153.802 7.37218 153.896H35.6937V148.938H5.70093ZM11.5813 153.591H9.10533V149.249H11.5813V153.591ZM14.574 153.591H12.0981V149.249H14.574V153.591ZM17.573 153.591H15.0909V149.249H17.5668L17.573 153.591ZM20.5689 153.591H18.0929V149.249H20.5689V153.591ZM23.5678 153.591H21.0919V149.249H23.5678V153.591ZM26.5668 153.591H24.0909V149.249H26.5668V153.591ZM29.5627 153.591H27.0868V149.249H29.5627V153.591ZM32.5586 153.591H30.0826V149.249H32.5586V153.591ZM35.5544 153.591H33.0785V149.249H35.5544V153.591Z" fill="#27B4EF"/>
<path opacity="0.1" d="M12.6953 163.398C12.7727 163.496 12.847 163.606 12.9274 163.704H14.5646V165.789C14.741 165.997 14.9144 166.204 15.0939 166.4V163.692H17.5698V168.049H16.567C16.6661 168.149 16.762 168.256 16.8765 168.354H35.7029V163.398H12.6953ZM20.5595 168.049H18.0836V163.71H20.5595V168.049ZM23.5584 168.049H21.0825V163.71H23.5584V168.049ZM26.5574 168.049H24.0815V163.71H26.5574V168.049ZM29.5533 168.049H27.0774V163.71H29.5533V168.049ZM32.5492 168.049H30.0732V163.71H32.5492V168.049ZM35.545 168.049H33.0691V163.71H35.545V168.049Z" fill="#27B4EF"/>
<path opacity="0.1" d="M29.219 177.856C29.5006 178.015 29.7885 178.162 30.0794 178.32V178.168H32.5553V179.542L33.0814 179.783V178.168H35.5574V180.809C35.6049 180.832 35.6546 180.851 35.7059 180.864V177.856H29.219Z" fill="#27B4EF"/>
<path opacity="0.1" d="M233.505 101.958H233.523H233.505ZM214.44 192.076H214.75H214.44ZM194.549 146.223C194.608 146.418 194.658 146.614 194.713 146.806C194.664 146.614 194.611 146.418 194.549 146.223ZM233.505 101.949H233.523H233.505ZM46.5723 56.2278V57.5316H60.3972V56.2278H46.5723ZM214.44 192.076H214.75H214.44ZM194.549 146.223C194.608 146.418 194.658 146.614 194.713 146.806C194.664 146.614 194.611 146.418 194.549 146.223ZM233.505 101.949H233.523H233.505ZM214.44 192.066H214.75H214.44ZM194.549 146.223C194.608 146.418 194.658 146.614 194.713 146.806C194.664 146.614 194.611 146.418 194.549 146.223Z" fill="#27B4EF"/>
<path d="M142.861 115.928C142.861 115.928 141.642 115.76 141.642 114.007C141.642 112.254 140.769 108.981 140.769 108.981C140.769 108.966 140.014 103.28 138.971 102.377C137.928 101.473 136.588 96.1661 136.588 96.1661C136.588 96.1661 136.359 93.2868 135.891 92.667C135.424 92.0471 134.793 90.5296 133.861 88.3647C132.929 86.1999 129.045 84.7007 129.045 84.7007C129.045 84.7007 122.023 80.6824 120.033 79.3725C119.852 79.2649 119.683 79.1391 119.528 78.997C119.182 78.5481 117.672 78.539 117.672 78.539C117.514 77.5558 117.362 76.426 117.313 75.4032C117.313 75.2932 117.313 75.1833 117.297 75.0734C119.516 73.7793 121.187 71.739 122.004 69.3269C122.042 69.2109 122.073 69.0888 122.107 68.9727C122.24 68.9295 122.362 68.8594 122.466 68.7669C122.57 68.6744 122.653 68.5614 122.71 68.4354C122.89 68.0415 122.893 67.5804 123.115 67.214C123.375 66.7804 123.871 66.5484 124.261 66.2217C125.245 65.3972 125.499 64.008 125.452 62.7439C125.421 61.721 125.254 60.6889 125.319 59.6722L125.338 59.4157C125.356 59.263 125.378 59.1103 125.406 58.9638C125.557 58.2065 125.889 57.4921 126.074 56.7409C126.26 55.9898 126.278 55.144 125.845 54.4967C125.211 53.5471 123.889 53.3578 122.729 53.2601C121.413 53.1502 120.237 53.2937 119.395 52.2158C119.001 51.6525 118.558 51.1243 118.071 50.6372C117.897 50.4784 116.214 49.4647 116.214 49.3976C114.571 48.6467 112.708 48.5058 110.968 49.0006C110.095 49.251 109.272 49.6601 108.387 49.8647C106.477 50.3105 104.28 49.8281 102.658 50.9059C101.754 51.5166 101.213 52.4876 100.705 53.4341C100.293 54.2137 99.8737 54.9924 99.4487 55.7699C98.7647 57.0493 98.0684 58.3501 97.7806 59.7668C97.72 60.0751 97.6828 60.3874 97.6691 60.7012V60.7164C97.6691 60.8294 97.6691 60.9424 97.6691 61.0553V61.1989C97.6691 61.3057 97.6691 61.4095 97.6877 61.5042C97.7063 61.5988 97.7032 61.6294 97.7125 61.6935C97.7217 61.7576 97.7372 61.9011 97.7558 61.9988C97.7744 62.0965 97.8115 62.2675 97.8486 62.4019C97.8641 62.4599 97.8858 62.5149 97.9043 62.5698C97.9353 62.6736 97.9724 62.7744 98.0127 62.8752C98.0343 62.9271 98.056 62.982 98.0808 63.0339C98.1272 63.1408 98.1829 63.2446 98.2386 63.3393C98.2634 63.382 98.2819 63.4217 98.3067 63.4614C98.393 63.6034 98.4881 63.74 98.5914 63.8706C99.2537 64.6858 100.229 65.2049 100.95 65.9682C100.95 65.9988 100.95 66.0293 100.95 66.0568C100.95 66.1423 100.95 66.2247 100.95 66.3102C100.988 68.0126 101.447 69.68 102.288 71.1674C103.128 72.6548 104.324 73.917 105.772 74.8444C105.772 74.9604 105.787 75.0795 105.793 75.1955C105.854 76.1019 105.842 77.0115 105.759 77.9161C105.633 77.7696 105.475 77.653 105.298 77.5748C105.12 77.4966 104.926 77.4588 104.732 77.4642C104.599 77.4578 104.465 77.4691 104.336 77.4978L104.308 77.4764V77.5039C103.627 77.6688 102.788 78.368 101.987 80.3557C101.987 80.3557 99.5478 83.0671 97.6908 82.9542C95.8339 82.8412 91.1327 85.7755 91.1327 85.7755C91.1327 85.7755 86.546 88.7128 85.5619 91.7051C85.0117 93.4019 84.3522 95.0623 83.5873 96.676L77.9174 108.203L76.8713 117.347C76.8713 117.347 77.4501 121.414 77.3356 122.034C77.2211 122.654 79.7156 128.245 79.7156 128.245C79.7156 128.245 87.9573 142.532 91.3246 143.264L91.566 143.097C91.71 143.171 91.8628 143.227 92.0209 143.264L92.7142 142.782C92.7558 143.32 92.7382 143.86 92.6616 144.394C92.1973 145.805 92.8349 155.011 93.6458 156.815C94.4566 158.62 94.1688 182.281 94.1688 182.281L94.0543 184.369C94.0543 184.369 94.0543 184.436 94.0821 184.552L94.0543 185.047L94.1378 185.09C94.2246 185.752 94.1964 186.424 94.0543 187.077C93.7634 187.993 93.6458 190.583 93.6458 190.583C93.6458 190.583 91.3277 205.202 92.4264 208.14C93.5251 211.077 94.4597 214.295 94.4597 214.295C94.4597 214.295 95.6203 217.959 94.5154 218.585C93.4105 219.211 90.2692 220.261 90.916 221.788C91.5041 223.199 93.7355 226.979 94.0667 227.532L94.0388 227.822L93.5839 232.686C93.6575 233.328 93.8341 233.954 94.1069 234.542C94.6052 235.602 95.5739 236.701 97.4154 236.582C97.7248 236.56 98.0839 236.524 98.4305 236.478C101.801 236.032 105.951 234.548 105.951 234.548C105.736 234.413 105.538 234.252 105.363 234.069C105.197 233.911 105.066 233.721 104.977 233.511C104.888 233.301 104.844 233.075 104.846 232.847C104.896 231.962 103.215 227.742 102.797 226.704C102.732 226.554 102.698 226.469 102.698 226.469C102.698 226.469 106.53 222.518 105.892 219.016C105.892 219.016 101.652 216.573 103.048 215.233C104.444 213.892 106.938 210.042 106.938 210.042C106.938 210.042 107.053 195.645 106.938 193.496C106.819 192.004 106.891 190.503 107.152 189.028C107.198 188.806 107.254 188.589 107.313 188.375C109.243 188.659 111.192 188.805 113.144 188.812C113.856 188.812 114.58 188.812 115.31 188.769C115.31 188.972 115.319 189.192 115.338 189.428C115.499 192.995 115.799 199.248 116.044 201.572C116.39 204.903 118.306 213.88 118.306 213.88C118.306 213.88 114.651 216.194 118.944 221.898C118.944 221.898 118.944 223.965 118.659 224.264C118.355 225.243 118.11 226.238 117.925 227.245C117.746 228.319 117.672 229.406 117.962 229.971C118.659 231.321 122.837 231.211 122.837 231.211L122.939 231.193C123.728 231.112 124.525 231.187 125.284 231.413C126.043 231.639 126.75 232.011 127.362 232.509C128.949 233.767 134.975 233.214 138.237 232.814C139.515 232.655 140.37 232.509 140.37 232.509C140.411 232.366 140.426 232.217 140.413 232.069C140.379 231.278 139.751 229.544 135.492 227.996C135.492 227.996 131.487 225.339 131.543 223.025H131.459H130.995C131.332 223.006 131.549 223.025 131.549 223.025C131.549 223.025 129.98 217.376 130.621 216.918C131.261 216.46 129.342 210.201 129.342 210.201C129.342 210.201 128.244 199.697 128.185 198.961C128.187 198.33 128.284 197.702 128.473 197.099L128.185 191.34C128.185 191.34 128.129 189.425 128.185 188.803C128.176 188.262 128.131 187.722 128.052 187.187C128.024 186.974 127.996 186.751 127.965 186.531C129.466 186.155 130.441 185.807 130.441 185.807L130.268 165.762C131.543 163.319 131.778 157.96 131.772 154.159C131.772 151.716 131.661 149.909 131.661 149.909L133.403 147.103C133.403 147.103 133.805 143.744 133.168 143.008C132.886 142.675 133.013 142.33 133.245 142.046C133.366 141.952 133.493 141.866 133.626 141.79C133.626 141.79 133.607 141.762 133.586 141.723C133.707 141.622 133.837 141.531 133.972 141.451C133.972 141.451 133.353 140.504 133.907 140.104C134.427 140.452 134.892 140.715 135.244 140.929C135.22 141.152 135.195 141.28 135.195 141.28L135.343 140.974C135.684 141.164 135.891 141.28 135.891 141.28C135.891 141.28 138.621 135.915 138.562 135.124C138.503 134.333 140.419 131.002 140.419 131.002C140.419 131.002 140.651 129.253 141.697 128.52C142.743 127.787 142.508 122.477 142.508 122.477C142.508 122.477 142.799 119.711 143.495 118.581C144.192 117.451 142.861 115.928 142.861 115.928ZM90.6313 113.573L90.6839 114.853C90.3744 114.361 90.1516 114.007 90.1516 114.007L90.6313 113.573Z" fill="url(#paint0_linear_1_253)"/>
<path d="M136.04 138.962L135.372 141.771C135.372 141.771 130.017 139.075 129.052 135.649C128.086 132.223 130.667 130.923 130.667 130.923L135.656 133.008L136.04 138.962Z" fill="white"/>
<path opacity="0.1" d="M136.04 138.962L135.372 141.771C135.372 141.771 130.017 139.075 129.052 135.649C128.086 132.223 130.667 130.923 130.667 130.923L135.656 133.008L136.04 138.962Z" fill="black"/>
<path d="M105.991 234.567C105.991 234.567 101.04 236.362 97.6351 236.588C95.8277 236.707 94.8776 235.614 94.3886 234.56C94.1215 233.975 93.9491 233.352 93.8779 232.713L94.3205 227.874L94.5557 225.297L101.789 223.443L102.813 226.533L102.909 226.768C103.321 227.8 104.97 231.999 104.921 232.875C104.919 233.099 104.962 233.322 105.05 233.529C105.137 233.736 105.266 233.924 105.428 234.081C105.594 234.266 105.783 234.429 105.991 234.567Z" fill="white"/>
<path d="M139.816 232.105C139.828 232.252 139.813 232.4 139.772 232.542C139.772 232.542 129.181 234.285 127.015 232.542C126.404 232.033 125.692 231.655 124.925 231.433C124.157 231.211 123.351 231.15 122.558 231.253C122.558 231.253 118.461 231.363 117.777 230.032C117.492 229.473 117.566 228.389 117.743 227.321C117.923 226.319 118.162 225.329 118.461 224.356L118.625 224.228L119.6 223.455L131.014 223.122H131.1C131.045 225.425 134.975 228.066 134.975 228.066C139.15 229.592 139.766 231.318 139.816 232.105Z" fill="white"/>
<path opacity="0.1" d="M139.816 232.105C139.826 232.253 139.811 232.4 139.769 232.542C139.769 232.542 129.182 234.286 127.015 232.542C126.405 232.033 125.693 231.656 124.926 231.434C124.159 231.212 123.354 231.15 122.562 231.254C122.562 231.254 118.461 231.363 117.78 230.032C117.495 229.47 117.566 228.389 117.743 227.321C119.321 227.477 121.813 227.864 122.791 228.789C124.27 230.197 126.777 231.602 128.315 231.712C129.519 231.788 136.721 232.014 139.816 232.105Z" fill="black"/>
<path opacity="0.1" d="M105.991 234.566C105.991 234.566 101.039 236.362 97.6351 236.588C95.8276 236.707 94.8775 235.614 94.3916 234.557C95.6512 234.976 97.3999 235.415 98.319 235.012C99.4085 234.536 103.271 234.227 105.437 234.096C105.602 234.274 105.788 234.432 105.991 234.566Z" fill="black"/>
<path d="M113.339 89.8823C109.254 88.3159 103.998 83.1404 105.311 80.7221C105.602 80.1119 105.775 79.4533 105.821 78.7802C105.906 77.8665 105.918 76.9477 105.858 76.0322C105.766 74.5327 105.583 73.0399 105.311 71.562C105.311 71.562 118.065 71.846 117.322 73.6994C117.105 74.2429 117.071 75.1864 117.13 76.2428C117.189 77.2993 117.344 78.4932 117.505 79.5038C117.727 80.8901 117.95 81.9465 117.95 81.9465C117.95 81.9465 117.17 83.0244 116.712 83.0824C116.254 83.1404 119.201 92.1143 113.339 89.8823Z" fill="#CF6F80"/>
<path opacity="0.1" d="M102.9 226.768L102.804 226.872C98.9908 222.323 94.3794 227.993 94.3794 227.993L94.3113 227.874L94.5465 225.297L101.779 223.443L102.804 226.533L102.9 226.768Z" fill="black"/>
<path opacity="0.1" d="M131.103 223.443C131.103 223.443 128.318 223.385 126.833 224.68C125.347 225.974 118.167 224.961 118.476 224.68C118.568 224.541 118.623 224.381 118.637 224.216L119.612 223.443L131.026 223.11C131.069 223.315 131.103 223.443 131.103 223.443Z" fill="black"/>
<path d="M107.644 187.715C107.437 188.221 107.279 188.746 107.174 189.282C106.916 190.749 106.844 192.243 106.96 193.728C107.075 195.865 106.96 210.188 106.96 210.188C106.96 210.188 104.512 214.008 103.147 215.355C101.782 216.701 105.933 219.119 105.933 219.119C106.552 222.6 102.801 226.533 102.801 226.533C98.9877 221.984 94.3763 227.657 94.3763 227.657C94.3763 227.657 91.8694 223.382 91.2442 221.855C90.619 220.329 93.6923 219.272 94.7724 218.652C95.8525 218.032 94.7198 214.378 94.7198 214.378C94.7198 214.378 93.8068 211.175 92.7236 208.252C91.6404 205.33 93.9182 190.784 93.9182 190.784C93.9182 190.784 94.0358 188.201 94.3175 187.3C94.4596 186.65 94.4878 185.981 94.401 185.322C94.3825 185.099 94.3608 184.912 94.3453 184.787C94.3298 184.662 94.3175 184.604 94.3175 184.604L94.3608 184.531L95.9082 181.685C95.9082 181.685 108.387 185.923 107.644 187.715Z" fill="#27B4EF"/>
<path d="M131.103 223.107C131.103 223.107 128.318 223.049 126.832 224.329C125.347 225.608 118.167 224.61 118.476 224.329C118.786 224.048 118.761 221.968 118.761 221.968C114.549 216.295 118.142 213.993 118.142 213.993C118.142 213.993 116.26 205.062 115.92 201.749C115.682 199.434 115.388 193.215 115.23 189.664C115.162 188.137 115.121 187.087 115.121 187.087L118.563 186.403L119.005 186.314L127.306 184.671C127.306 184.671 127.535 186.198 127.69 187.447C127.767 187.98 127.81 188.518 127.82 189.056C127.764 189.667 127.82 191.578 127.82 191.578L128.101 197.309C127.917 197.91 127.823 198.535 127.82 199.163C127.875 199.892 128.956 210.341 128.956 210.341C128.956 210.341 130.834 216.576 130.194 217.025C129.553 217.474 131.103 223.107 131.103 223.107Z" fill="#27B4EF"/>
<path opacity="0.1" d="M117.322 73.6994C117.105 74.2429 117.071 75.1864 117.13 76.2428C115.422 77.2578 113.458 77.7767 111.464 77.74C109.47 77.7032 107.527 77.1124 105.858 76.0352C105.766 74.5347 105.584 73.0409 105.311 71.562C105.311 71.562 118.065 71.8399 117.322 73.6994Z" fill="black"/>
<path d="M122.252 66.9515C122.255 68.0518 122.079 69.1454 121.732 70.1911C120.957 72.5342 119.367 74.5314 117.243 75.8297C115.12 77.1281 112.599 77.644 110.127 77.2862C107.655 76.9285 105.391 75.7202 103.735 73.8748C102.079 72.0295 101.137 69.6659 101.077 67.2019C101.077 67.1164 101.077 67.037 101.077 66.9515C101.053 65.5645 101.309 64.1867 101.83 62.8984C102.352 61.6102 103.128 60.4372 104.113 59.448C105.099 58.4588 106.275 57.6731 107.571 57.1367C108.868 56.6004 110.26 56.3242 111.666 56.3242C113.072 56.3242 114.464 56.6004 115.761 57.1367C117.057 57.6731 118.233 58.4588 119.219 59.448C120.204 60.4372 120.98 61.6102 121.502 62.8984C122.023 64.1867 122.279 65.5645 122.255 66.9515H122.252Z" fill="#CF6F80"/>
<path opacity="0.1" d="M113.339 89.8823C109.254 88.316 103.998 83.1405 105.311 80.7222C105.602 80.112 105.775 79.4533 105.821 78.7803L111.414 83.3145L114.874 86.1145L117.505 79.507C117.727 80.8932 117.95 81.9497 117.95 81.9497C117.95 81.9497 117.17 83.0275 116.712 83.0855C116.254 83.1435 119.201 92.1144 113.339 89.8823Z" fill="black"/>
<path d="M127.801 109.922L123.131 187.325L117.04 187.719L101.269 142.837L103.856 89.5525L104.401 78.2947L111.414 83.977L114.877 86.777L117.585 79.9771L122.62 84.3068L127.801 109.922Z" fill="#27B4EF"/>
<path opacity="0.1" d="M107.644 187.715C107.437 188.221 107.279 188.746 107.174 189.282C102.742 188.607 98.4374 187.28 94.4041 185.346L94.3206 185.303L94.3484 184.812L94.3639 184.555L95.9113 181.709C95.9113 181.709 108.387 185.923 107.644 187.715Z" fill="black"/>
<path opacity="0.1" d="M118.634 189.294C117.501 189.484 116.358 189.613 115.211 189.679C115.143 188.152 115.103 187.102 115.103 187.102L118.544 186.418L118.634 189.294Z" fill="black"/>
<path opacity="0.1" d="M127.671 187.462C125.471 188.027 122.072 188.662 119.03 188.265L118.987 186.329L127.287 184.687C127.287 184.687 127.516 186.198 127.671 187.462Z" fill="black"/>
<path opacity="0.1" d="M118.975 188.619C106.285 190.757 94.664 184.628 94.664 184.628L94.7755 182.552C94.7755 182.552 95.0633 159.014 94.2648 157.209C93.4663 155.405 92.8442 146.254 93.2961 144.849C93.7479 143.445 91.6465 122.382 91.6465 122.382L91.3061 113.833L78.8459 108.853L84.4168 97.3966C85.1692 95.7903 85.8164 94.1381 86.3542 92.4501C87.3229 89.4761 91.8198 86.554 91.8198 86.554C91.8198 86.554 96.4312 83.635 98.2541 83.7449C100.077 83.8548 102.466 81.1618 102.466 81.1618C104.23 76.7252 105.827 78.7343 105.827 78.7343C105.827 78.945 105.827 78.7343 105.741 79.3908C105.122 84.2609 115.75 99.65 115.901 99.9217L116.913 124.245L117.938 155.026L118.975 188.619Z" fill="black"/>
<path d="M118.634 188.619C105.945 190.757 94.3204 184.628 94.3204 184.628L94.4349 182.552C94.4349 182.552 94.7227 159.014 93.9211 157.209C93.1195 155.405 92.5006 146.254 92.9555 144.849C93.4105 143.445 91.3059 122.382 91.3059 122.382L90.9624 113.833L78.4961 108.835L84.0669 97.3783C84.8177 95.7713 85.4648 94.1192 86.0043 92.4318C86.97 89.4578 91.47 86.5357 91.47 86.5357C91.47 86.5357 96.0814 83.6167 97.9012 83.7266C99.721 83.8365 102.113 81.1435 102.113 81.1435C103.881 76.7069 105.827 78.716 105.827 78.716C105.827 78.9267 105.642 79.0213 105.741 79.3725C107.102 84.0961 115.409 99.6316 115.561 99.9034L116.585 124.227L117.61 155.008L118.634 188.619Z" fill="white"/>
<path opacity="0.1" d="M115.214 100.597C113.849 100.035 106.62 91.8914 106.62 91.8914V90.038C106.357 89.4273 104.794 89.7998 103.525 90.2273L104.069 78.9695L104.688 79.4763C106.044 84.1969 115.056 100.325 115.214 100.597Z" fill="black"/>
<path d="M115.558 99.9217C114.19 99.3599 106.96 91.2166 106.96 91.2166V89.3632C106.697 88.7525 105.134 89.125 103.865 89.5525L104.413 78.2947L105.032 78.8015C106.391 83.5221 115.406 99.653 115.558 99.9217Z" fill="white"/>
<path opacity="0.1" d="M94.6641 140.535C94.8343 140.535 103.488 139.637 103.488 139.637C103.488 139.637 108.727 149.802 108.384 152.275C108.04 154.748 107.418 156.937 105.311 156.55C103.203 156.162 93.9678 156.855 93.9678 156.855L94.6641 140.535Z" fill="black"/>
<path d="M94.3204 139.86C94.4906 139.86 103.144 138.962 103.144 138.962C103.144 138.962 108.381 149.13 108.04 151.6C107.7 154.07 107.071 156.263 104.967 155.875C102.862 155.487 93.624 156.18 93.624 156.18L94.3204 139.86Z" fill="white"/>
<path d="M100.841 135.087C100.841 135.087 108.783 139.298 108.953 140.583C109.123 141.869 104.911 140.022 104.001 139.799C103.403 139.656 102.793 139.562 102.179 139.518L96.1094 139.68L100.841 135.087Z" fill="#CF6F80"/>
<path opacity="0.1" d="M112.998 101.122C113.46 101.122 113.834 100.753 113.834 100.297C113.834 99.842 113.46 99.4729 112.998 99.4729C112.537 99.4729 112.163 99.842 112.163 100.297C112.163 100.753 112.537 101.122 112.998 101.122Z" fill="black"/>
<path d="M112.998 100.786C113.46 100.786 113.834 100.417 113.834 99.9614C113.834 99.5061 113.46 99.137 112.998 99.137C112.537 99.137 112.163 99.5061 112.163 99.9614C112.163 100.417 112.537 100.786 112.998 100.786Z" fill="#3F3D56"/>
<path opacity="0.1" d="M114.537 136.809C114.998 136.809 115.372 136.44 115.372 135.985C115.372 135.53 114.998 135.161 114.537 135.161C114.075 135.161 113.701 135.53 113.701 135.985C113.701 136.44 114.075 136.809 114.537 136.809Z" fill="black"/>
<path d="M114.537 136.471C114.998 136.471 115.372 136.102 115.372 135.646C115.372 135.191 114.998 134.822 114.537 134.822C114.075 134.822 113.701 135.191 113.701 135.646C113.701 136.102 114.075 136.471 114.537 136.471Z" fill="#3F3D56"/>
<path opacity="0.1" d="M113.831 118.966C114.292 118.966 114.666 118.597 114.666 118.141C114.666 117.686 114.292 117.317 113.831 117.317C113.369 117.317 112.995 117.686 112.995 118.141C112.995 118.597 113.369 118.966 113.831 118.966Z" fill="black"/>
<path d="M113.831 118.63C114.292 118.63 114.666 118.261 114.666 117.805C114.666 117.35 114.292 116.981 113.831 116.981C113.369 116.981 112.995 117.35 112.995 117.805C112.995 118.261 113.369 118.63 113.831 118.63Z" fill="#3F3D56"/>
<path d="M133.094 139.347C133.094 139.347 133.663 140.19 133.094 140.584C132.524 140.977 133.149 141.93 133.149 141.93C133.149 141.93 131.729 142.751 132.354 143.49C132.979 144.229 132.583 147.567 132.583 147.567L130.875 150.357C130.875 150.357 130.977 152.156 130.983 154.586C130.983 158.379 130.757 163.71 129.507 166.14L129.68 186.082C129.68 186.082 123.697 188.238 118.69 187.581L117.947 155.582C117.947 155.582 119.03 137.435 119.43 133.955C119.663 132.148 119.758 130.326 119.714 128.504C119.714 128.504 119.544 123.057 118.972 120.529C118.972 120.529 118.353 109.576 118.291 106.544C118.263 105.094 118.34 100.862 118.427 96.8378C118.523 92.4379 118.631 88.2883 118.631 88.2883L117.501 79.4702C117.501 79.4702 118.631 79.3572 118.972 79.8061C119.124 79.9466 119.29 80.0724 119.467 80.1816C121.417 81.4824 128.306 85.4823 128.306 85.4823C128.306 85.4823 132.119 86.9784 133.032 89.1219C133.945 91.2654 134.579 92.786 135.022 93.3966C135.464 94.0073 135.706 96.8775 135.706 96.8775C135.706 96.8775 137.018 102.16 138.042 103.054C139.067 103.949 139.816 109.641 139.816 109.641L130.763 116.663C130.763 116.663 129.968 128.346 129.798 128.797C129.627 129.249 133.094 139.347 133.094 139.347Z" fill="white"/>
<path d="M133.437 139.347C133.437 139.347 134.003 140.19 133.437 140.584C132.871 140.977 133.49 141.93 133.49 141.93C133.49 141.93 132.078 142.761 132.697 143.5C133.316 144.238 132.926 147.576 132.926 147.576L131.218 150.367C131.218 150.367 131.32 152.165 131.329 154.596C131.329 158.388 131.104 163.719 129.853 166.15L130.023 186.091C130.023 186.091 124.032 188.247 119.03 187.59L118.291 155.591C118.291 155.591 119.374 137.445 119.773 133.964C120.007 132.157 120.101 130.335 120.055 128.514C120.055 128.514 119.884 123.066 119.315 120.538C119.315 120.538 118.696 109.586 118.631 106.554C118.603 105.103 118.684 100.871 118.767 96.847C118.863 92.4471 118.971 88.2976 118.971 88.2976L117.48 79.3604C117.48 79.3604 118.971 79.3603 119.315 79.8153C119.466 79.9575 119.632 80.0834 119.81 80.1909C121.76 81.4916 128.652 85.4915 128.652 85.4915C128.652 85.4915 132.462 86.9877 133.375 89.1312C134.288 91.2746 134.923 92.7952 135.368 93.4059C135.814 94.0166 136.049 96.8867 136.049 96.8867C136.049 96.8867 137.361 102.169 138.386 103.064C139.41 103.958 140.15 109.638 140.15 109.638L131.097 116.66C131.097 116.66 130.302 128.343 130.129 128.795C129.955 129.246 133.437 139.347 133.437 139.347Z" fill="white"/>
<path opacity="0.1" d="M122.596 90.8899L123.413 93.241L119.111 97.5157C119.207 93.1189 119.315 88.9663 119.315 88.9663L117.823 80.0291C117.823 80.0291 119.315 80.029 119.659 80.484C119.809 80.6258 119.975 80.7507 120.154 80.8565L123.812 91.2685L122.596 90.8899Z" fill="black"/>
<path d="M122.252 90.2151L123.072 92.5662L118.77 96.8409C118.866 92.441 118.975 88.2915 118.975 88.2915L117.48 79.3542C117.48 79.3542 118.975 79.3543 119.315 79.8092C119.467 79.9505 119.633 80.0764 119.81 80.1848L123.471 90.5937L122.252 90.2151Z" fill="white"/>
<path opacity="0.1" d="M122.252 66.9515C122.255 68.0518 122.079 69.1454 121.732 70.1911C121.674 70.2001 121.614 70.1975 121.557 70.1833C121.499 70.1691 121.445 70.1438 121.398 70.1087C121.317 67.3606 119.946 64.7805 118.26 62.5852C117.786 61.9223 117.212 61.3353 116.557 60.8447C115.896 60.3544 115.073 60.1247 114.249 60.2005C113.32 60.3257 112.5 60.9485 111.562 61.0279C110.324 61.1287 109.216 60.2829 107.988 60.2402C107.488 60.2448 106.995 60.3546 106.542 60.562C106.089 60.7695 105.686 61.0699 105.36 61.4432C104.715 62.1965 104.235 63.0742 103.952 64.0202C103.465 65.4548 103.2 66.9535 103.166 68.466C103.15 69.3209 103.067 70.3926 102.262 70.7041C102.323 70.0753 102.25 69.441 102.049 68.8413C101.849 68.2416 101.524 67.6896 101.095 67.2202L101.077 67.2019C101.077 67.1164 101.077 67.037 101.077 66.9515C101.053 65.5645 101.309 64.1867 101.83 62.8984C102.352 61.6102 103.128 60.4372 104.113 59.448C105.099 58.4588 106.275 57.6731 107.571 57.1367C108.868 56.6004 110.26 56.3242 111.666 56.3242C113.072 56.3242 114.464 56.6004 115.761 57.1367C117.057 57.6731 118.233 58.4588 119.219 59.448C120.204 60.4372 120.98 61.6102 121.502 62.8984C122.023 64.1867 122.279 65.5645 122.255 66.9515H122.252Z" fill="black"/>
<path d="M116.05 50.3625C114.442 49.6161 112.612 49.4749 110.906 49.9655C110.049 50.2159 109.241 50.622 108.371 50.8266C106.514 51.2693 104.348 50.7899 102.754 51.8617C101.869 52.4723 101.337 53.4372 100.841 54.3746L99.6035 56.7013C98.9288 57.9745 98.2479 59.2691 97.9663 60.6706C97.6847 62.0721 97.8549 63.6416 98.7555 64.7683C99.4116 65.5896 100.38 66.1057 101.092 66.8782C101.519 67.348 101.842 67.8998 102.042 68.4987C102.243 69.0977 102.315 69.731 102.256 70.359C103.064 70.0537 103.141 68.9789 103.16 68.1239C103.194 66.6115 103.459 65.1128 103.946 63.6782C104.228 62.7319 104.708 61.8541 105.354 61.1012C105.68 60.7282 106.083 60.428 106.536 60.2205C106.989 60.0131 107.482 59.9032 107.981 59.8981C109.219 59.9409 110.33 60.7836 111.556 60.6829C112.485 60.6065 113.308 59.9806 114.242 59.8585C115.067 59.7815 115.89 60.0113 116.551 60.5027C117.206 60.9925 117.779 61.5797 118.25 62.2431C119.94 64.4385 121.311 67.0125 121.392 69.7667C121.741 70.0201 122.246 69.6903 122.419 69.2995C122.593 68.9087 122.599 68.4507 122.818 68.0781C123.072 67.6476 123.558 67.4186 123.939 67.095C124.904 66.2736 125.146 64.8904 125.109 63.6355C125.072 62.3805 124.824 61.1073 125.065 59.8737C125.211 59.1165 125.539 58.4081 125.718 57.66C125.898 56.9119 125.92 56.0723 125.496 55.428C124.877 54.4815 123.574 54.2952 122.438 54.2067C121.147 54.0967 119.993 54.2372 119.17 53.1655C118.783 52.6062 118.348 52.0811 117.87 51.596C117.706 51.4372 116.05 50.4296 116.05 50.3625Z" fill="#512E4E"/>
<path opacity="0.1" d="M82.4112 114.752L79.177 108.853L78.1526 117.955C78.1526 117.955 78.7221 121.998 78.6075 122.617C78.493 123.237 80.9411 128.794 80.9411 128.794C80.9411 128.794 89.0281 143.005 92.3304 143.738L103.488 135.872L100.529 132.165C100.529 132.165 99.5044 131.771 99.2475 132.165C99.2475 132.165 93.754 122.84 93.1846 122.166C92.6151 121.491 92.7265 120.144 92.7265 120.144C92.7265 120.144 91.8723 119.246 92.1571 118.404C92.4418 117.561 90.5075 114.639 90.5075 114.639L92.2716 113.011L82.4112 114.752Z" fill="black"/>
<path d="M79.3474 108.181L78.4932 108.853L77.4688 117.955C77.4688 117.955 78.0382 121.998 77.9237 122.618C77.8092 123.237 80.2604 128.795 80.2604 128.795C80.2604 128.795 88.3443 143.005 91.6465 143.738L102.807 135.872L99.845 132.165C99.845 132.165 98.8206 131.772 98.5637 132.165C98.5637 132.165 93.0702 122.84 92.5007 122.166C91.9313 121.491 92.0458 120.144 92.0458 120.144C92.0458 120.144 91.1916 119.247 91.4763 118.404C91.7611 117.561 89.8236 114.639 89.8236 114.639L91.5878 113.012L79.3474 108.181Z" fill="white"/>
<path opacity="0.1" d="M132.354 143.838C132.973 144.58 132.583 147.912 132.583 147.912L130.874 150.702C130.874 150.702 130.977 152.504 130.983 154.931L128.111 155.817C127.851 155.897 127.576 155.914 127.308 155.868C127.04 155.822 126.787 155.713 126.571 155.551C126.354 155.389 126.18 155.177 126.063 154.935C125.946 154.693 125.889 154.427 125.898 154.159L126.393 138.4L133.093 140.929C132.524 141.319 133.149 142.278 133.149 142.278C133.149 142.278 131.729 143.096 132.354 143.838Z" fill="black"/>
<path d="M132.697 143.499C133.316 144.241 132.926 147.576 132.926 147.576L131.218 150.366C131.218 150.366 131.32 152.165 131.329 154.595L128.405 155.496C128.151 155.574 127.881 155.591 127.619 155.545C127.357 155.5 127.109 155.393 126.898 155.234C126.686 155.075 126.515 154.869 126.401 154.632C126.286 154.395 126.23 154.134 126.238 153.872L126.737 138.064L133.44 140.593C132.868 140.983 133.493 141.939 133.493 141.939C133.493 141.939 132.078 142.761 132.697 143.499Z" fill="white"/>
<path d="M134.917 135.988C134.917 135.988 134.462 138.855 133.323 139.023C132.184 139.191 131.673 143.661 130.537 143.503C129.401 143.344 130.153 139.347 130.194 138.571C130.234 137.796 128.956 134.584 129.912 133.854C130.868 133.124 133.895 133.854 133.895 133.854L134.917 135.988Z" fill="#CF6F80"/>
<path opacity="0.1" d="M137.34 113.909L139.488 109.635C139.488 109.635 140.342 112.892 140.342 114.633C140.342 116.373 141.536 116.544 141.536 116.544C141.536 116.544 142.846 118.071 142.155 119.182C141.465 120.294 141.187 123.06 141.187 123.06C141.187 123.06 141.413 128.339 140.388 129.069C139.364 129.799 139.15 131.542 139.15 131.542C139.15 131.542 137.268 134.855 137.327 135.643C137.386 136.431 134.709 141.765 134.709 141.765C134.709 141.765 136.018 135.136 128.389 132.272C128.389 132.272 128.33 130.022 128.9 129.405C129.469 128.788 130.358 128.507 129.8 125.39C129.243 122.272 129.64 118.547 129.64 117.799C129.64 117.051 131.348 112.386 131.348 112.386L137.34 113.909Z" fill="black"/>
<path d="M138.268 109.024L140.144 109.635C140.144 109.635 141.001 112.893 141.001 114.633C141.001 116.373 142.196 116.544 142.196 116.544C142.196 116.544 143.505 118.071 142.815 119.183C142.125 120.294 141.849 123.06 141.849 123.06C141.849 123.06 142.075 128.34 141.051 129.069C140.026 129.799 139.797 131.543 139.797 131.543C139.797 131.543 137.919 134.856 137.977 135.643C138.036 136.431 135.356 141.765 135.356 141.765C135.356 141.765 136.668 135.136 129.036 132.272C129.036 132.272 128.98 130.022 129.55 129.405C130.119 128.788 131.008 128.508 130.451 125.39C129.893 122.273 130.29 118.547 130.29 117.799C130.29 117.051 131.998 112.386 131.998 112.386L138.268 109.024Z" fill="white"/>
<path opacity="0.1" d="M96.8428 219.822C96.8428 219.822 99.8325 217.968 101.795 219.315C103.757 220.661 96.8428 219.822 96.8428 219.822Z" fill="black"/>
<path opacity="0.1" d="M120.073 214.09C120.073 214.09 122.719 213.755 124.942 216.115C127.164 218.475 120.073 214.09 120.073 214.09Z" fill="black"/>
<g opacity="0.1">
<path opacity="0.1" d="M123.945 66.4262C123.564 66.7498 123.075 66.9819 122.822 67.4124C122.605 67.7819 122.599 68.2368 122.425 68.6338C122.252 69.0307 121.748 69.3544 121.398 69.104C121.317 66.356 119.943 63.7759 118.257 61.5774C117.785 60.914 117.212 60.3268 116.558 59.837C115.895 59.3457 115.071 59.1159 114.246 59.1927C113.317 59.3179 112.5 59.9408 111.562 60.0172C110.324 60.121 109.213 59.2752 107.985 59.2324C107.485 59.2373 106.993 59.3475 106.54 59.5555C106.088 59.7635 105.685 60.0646 105.36 60.4385C104.714 61.1903 104.234 62.0671 103.952 63.0125C103.466 64.4472 103.201 65.9458 103.166 67.4582C103.147 68.3101 103.067 69.3727 102.268 69.6902C102.287 69.9158 102.287 70.1425 102.268 70.3681C103.073 70.0628 103.153 68.988 103.172 68.133C103.207 66.6206 103.472 65.1219 103.958 63.6873C104.241 62.741 104.72 61.8632 105.366 61.1103C105.692 60.7373 106.095 60.4372 106.547 60.2297C107 60.0223 107.492 59.9123 107.991 59.9072C109.229 59.95 110.343 60.7927 111.569 60.692C112.497 60.6156 113.32 59.9897 114.252 59.8675C115.077 59.7907 115.901 60.0205 116.564 60.5118C117.218 61.0016 117.791 61.5888 118.263 62.2522C119.95 64.4476 121.324 67.0216 121.404 69.7757C121.754 70.0292 122.258 69.6994 122.432 69.3086C122.605 68.9177 122.611 68.4597 122.828 68.0872C123.082 67.6567 123.571 67.4277 123.951 67.104C124.917 66.2827 125.158 64.8995 125.121 63.6446C125.121 63.6049 125.121 63.5652 125.121 63.5285C125.062 64.6155 124.768 65.7239 123.945 66.4262Z" fill="black"/>
<path opacity="0.1" d="M101.098 66.2094C100.387 65.4368 99.4148 64.9208 98.7618 64.1025C98.2119 63.3781 97.8978 62.5061 97.8611 61.6018C97.7637 62.7318 98.0836 63.8585 98.7618 64.7743C99.4148 65.5956 100.387 66.1116 101.098 66.8841C101.782 67.6398 102.192 68.5976 102.265 69.6078C102.313 68.993 102.234 68.3751 102.033 67.7911C101.833 67.2072 101.515 66.6692 101.098 66.2094Z" fill="black"/>
<path opacity="0.1" d="M125.725 56.9913C125.542 57.7394 125.217 58.4508 125.069 59.205C124.981 59.7089 124.948 60.2208 124.973 60.7317C124.983 60.4407 125.015 60.1508 125.069 59.8645C125.217 59.1073 125.542 58.3989 125.725 57.6508C125.831 57.2382 125.866 56.8107 125.827 56.3867C125.808 56.5904 125.773 56.7925 125.725 56.9913Z" fill="black"/>
</g>
<path opacity="0.1" d="M41.0787 232.237C57.7338 232.237 71.2355 230.097 71.2355 227.458C71.2355 224.819 57.7338 222.68 41.0787 222.68C24.4235 222.68 10.9219 224.819 10.9219 227.458C10.9219 230.097 24.4235 232.237 41.0787 232.237Z" fill="#27B4EF"/>
<path d="M42.0506 135.918H40.1101V179.022H42.0506V135.918Z" fill="#535461"/>
<path d="M54.2444 178.891L54.1237 180.833L53.9504 183.581L53.8792 184.723L53.709 187.471L53.6347 188.613L53.4614 191.361L51.5054 222.527C51.4204 223.868 50.8207 225.127 49.8283 226.047C48.8359 226.967 47.5254 227.479 46.1636 227.48H35.9937C34.6322 227.479 33.3221 226.967 32.3302 226.046C31.3383 225.126 30.7393 223.868 30.655 222.527L28.7083 191.34L28.535 188.592L28.4638 187.45L28.2905 184.702L28.2193 183.56L28.046 180.812L27.9222 178.87C27.9007 178.496 27.9568 178.122 28.0871 177.77C28.2175 177.419 28.4192 177.097 28.6801 176.825C28.9409 176.553 29.2553 176.337 29.6039 176.189C29.9526 176.041 30.3282 175.965 30.7076 175.966H51.5085C51.8865 175.969 52.2599 176.049 52.6055 176.2C52.9511 176.351 53.2617 176.57 53.5181 176.845C53.7745 177.119 53.9712 177.442 54.0961 177.794C54.221 178.146 54.2715 178.519 54.2444 178.891Z" fill="#3F3D56"/>
<path d="M54.1238 180.833L53.9505 183.572H28.207L28.0337 180.833H54.1238Z" fill="#9D9CB5"/>
<path d="M53.8794 184.714L53.7092 187.456H28.4516L28.2783 184.714H53.8794Z" fill="#9D9CB5"/>
<path d="M53.6348 188.601L53.4646 191.34H28.696L28.5227 188.601H53.6348Z" fill="#9D9CB5"/>
<path d="M25.072 152.073C36.3715 160.14 41.0882 172.757 41.0882 172.757C41.0882 172.757 27.4705 172.296 16.1679 164.229C4.86532 156.162 0.157959 143.548 0.157959 143.548C0.157959 143.548 13.7694 144.006 25.072 152.073Z" fill="#27B4EF"/>
<path d="M0.148682 143.548C0.148682 143.548 14.2862 151.289 18.8203 157.698C23.3543 164.107 41.0882 172.757 41.0882 172.757" stroke="#535461" stroke-width="2" stroke-miterlimit="10"/>
<path d="M32.3666 135.823C38.5162 140.211 41.088 147.078 41.088 147.078C41.088 147.078 33.6757 146.828 27.5231 142.44C21.3704 138.052 18.8047 131.182 18.8047 131.182C18.8047 131.182 26.2139 131.432 32.3666 135.823Z" fill="#27B4EF"/>
<path d="M18.8047 131.182C18.8047 131.182 26.4986 135.396 28.9653 138.883C31.4319 142.37 41.088 147.078 41.088 147.078" stroke="#535461" stroke-width="2" stroke-miterlimit="10"/>
<path d="M50.0168 146.73C42.9511 154.391 41.4563 164.403 41.4563 164.403C41.4563 164.403 51.4188 161.991 58.4783 154.327C65.5378 146.663 67.0388 136.654 67.0388 136.654C67.0388 136.654 57.0825 139.069 50.0168 146.73Z" fill="#27B4EF"/>
<path d="M67.045 136.657C67.045 136.657 57.8408 144.51 55.501 149.921C53.1613 155.331 41.4563 164.403 41.4563 164.403" stroke="#535461" stroke-width="2" stroke-miterlimit="10"/>
<path d="M309.389 144.034C309.389 144.034 304.279 118.953 306.235 115.833C306.235 115.833 306.306 112.932 306.189 109.234C306.189 109.094 306.189 108.954 306.189 108.81C306.533 109.036 306.892 109.24 307.263 109.421C309.065 110.334 311.134 110.598 313.112 110.166L311.565 108.465C311.193 108.059 310.806 107.619 310.726 107.082C310.645 106.544 310.868 106.065 311.06 105.586C312.53 101.922 312.608 97.3141 309.776 94.5172C307.383 92.1661 306.802 89.1311 304.205 86.9845C302.308 85.412 301.265 83.1067 300.281 80.8778C299.448 78.9938 298.609 77.0946 298.133 75.0977C297.761 73.5375 297.613 71.9222 297.102 70.3986C296.591 68.875 295.635 67.3941 294.14 66.7132C293.608 66.4719 293.017 66.3345 292.531 66.0139C291.893 65.5895 291.51 64.8995 291.049 64.2949C288.706 61.2415 280.86 63.04 277.146 64.2796C276.136 64.5918 275.202 65.1029 274.398 65.7819L274.432 65.7269C274.46 65.6811 274.494 65.6353 274.525 65.5895C274.118 65.9138 273.767 66.3004 273.485 66.7345C272.943 67.5803 272.717 68.5666 272.265 69.4826C271.721 70.5665 268.691 73.5924 269.994 74.8107C270.085 74.8925 270.19 74.9586 270.303 75.0061C270.792 75.207 271.331 75.2601 271.851 75.1588L271.795 75.2901C271.35 76.365 271.122 77.5152 271.123 78.6763C271.123 83.693 275.317 87.7601 280.495 87.7601C281.468 87.761 282.436 87.6137 283.364 87.3235C283.386 87.4395 283.404 87.5555 283.426 87.6715C283.426 87.7173 283.441 87.7631 283.447 87.8089L283.283 88.0349C283.275 88.021 283.266 88.0077 283.256 87.9952L278.397 94.6943C277.654 95.2103 273.377 98.2637 273.135 100.554C272.881 103.061 272.628 105.995 272.628 105.995L272.594 106.624C272.381 106.799 272.133 106.926 271.866 106.998C271.599 107.069 271.319 107.082 271.046 107.036C269.53 106.792 269.53 112.532 269.53 112.532C269.53 112.532 268.521 113.448 267.827 112.654C267.134 111.86 265.302 114.55 265.302 114.55L253.82 115.039L253.557 115.054L252.938 113.164C252.871 112.965 252.728 112.799 252.538 112.704C252.349 112.608 252.128 112.591 251.926 112.654C251.878 112.67 251.831 112.689 251.786 112.712L251.743 112.737L251.663 112.792L251.622 112.828C251.6 112.848 251.58 112.87 251.561 112.892L251.523 112.935L251.505 112.953C251.433 113.051 251.386 113.164 251.367 113.282C251.347 113.401 251.356 113.523 251.393 113.637L251.926 115.259C249.71 115.698 247.444 116.938 249.292 120.352L239.927 118.645L242.957 121.155L258.598 124.34C258.391 124.706 258.527 125.237 259.174 125.985C261.959 129.213 267.035 130.089 269.078 130.315C269.617 131.505 270.291 132.632 271.086 133.674L270.91 136.889C270.91 136.889 265.738 161.395 264.791 162.638C265.269 162.104 265.707 161.535 266.1 160.937C264.599 165.972 262.501 172.864 261.95 173.896C261.065 175.545 260.245 182.216 261.254 182.644C261.563 182.775 262.448 182.711 263.711 182.616V183.169L263.655 204.112C263.655 204.112 263.909 216.958 263.213 218.182C262.517 219.406 262.331 221.974 262.331 221.974C262.331 221.974 259.545 227.04 257.339 229.076C257.324 229.092 257.307 229.107 257.289 229.119L257.221 228.643C257.221 228.643 254.569 231.947 248.701 231.76C248.701 231.76 245.17 234.026 250.406 234.148C255.643 234.27 262.331 233.965 262.331 233.965C262.331 233.965 267.001 226.942 270.913 227.858V233.18H272.111V227.773C272.666 227.412 273.142 226.944 273.508 226.396C273.875 225.849 274.125 225.234 274.243 224.588C274.346 223.923 274.271 223.242 274.025 222.614C273.78 221.986 273.373 221.432 272.844 221.006C272.607 220.795 272.416 220.537 272.285 220.249C272.153 219.961 272.083 219.649 272.08 219.333L272.036 219.37C272.036 219.263 272.009 219.153 271.996 219.04C271.653 216.292 271.223 210.622 272.742 206.426C274.825 200.674 275.456 192.662 273.94 187.892C273.451 186.368 273.049 184.817 272.736 183.248C272.699 183.05 272.665 182.861 272.634 182.683C273.67 182.822 274.697 183.026 275.707 183.294C279.22 184.25 286.904 184.427 293.466 184.375C293.481 184.552 293.5 184.738 293.521 184.925C293.638 186.219 293.883 187.5 294.252 188.747C295.075 191.19 295.453 201.959 295.453 201.959C295.453 201.959 296.514 210.814 295.935 214.417C295.626 216.42 295.316 218.432 295.14 220.454V220.493C295.14 220.493 293.401 225.379 292.129 228.032C292.098 228.099 292.064 228.167 292.033 228.231C291.694 228.261 291.36 228.334 291.039 228.447C291.039 228.447 289.334 231.806 287.635 232.362C285.936 232.918 286.499 234.747 290.346 234.075C294.193 233.403 300.002 232.853 300.002 232.853L300.253 229.428L301.435 227.968L301.126 231.385L302.385 231.141L302.218 226.985L304.152 224.597C304.152 224.597 306.489 222.545 303.017 218.509V218.597C302.979 218.539 302.945 218.478 302.905 218.42V218.402C302.329 217.522 301.871 215.883 302.71 212.973C304.227 207.715 305.109 202.943 305.109 202.943C305.109 202.943 308.495 190.158 304.425 184.109H304.604C304.187 183.258 303.892 182.354 303.728 181.422C303.708 181.312 303.689 181.2 303.673 181.083C306.684 180.912 309.64 180.375 312.051 179.215C312.041 179.203 310.59 148.864 309.389 144.034ZM271.158 122.874V122.935L270.539 122.966L271.158 122.874ZM269.034 123.164C268.933 123.186 268.837 123.231 268.756 123.295C268.49 123.667 268.323 124.098 268.27 124.55L267.304 124.336C267.304 124.336 266.627 124.193 265.652 124.031L265.191 123.573C266.459 123.469 267.778 123.317 269.034 123.164Z" fill="url(#paint1_linear_1_253)"/>
<path d="M300.983 227.028L300.615 231.354L301.85 231.11L301.664 226.417L300.983 227.028Z" fill="#1D2366"/>
<path d="M272.81 206.485C271.321 210.668 271.742 216.313 272.077 219.055C272.2 220.069 272.315 220.686 272.315 220.686C272.315 220.686 270.09 225.687 269.904 225.877C269.718 226.066 263.355 229.898 263.355 229.898L258.908 232.46C258.908 232.46 254.395 230.509 256.559 229.837C257.001 229.662 257.399 229.394 257.725 229.052C259.892 227.022 262.612 221.974 262.612 221.974C262.612 221.974 262.798 219.413 263.479 218.194C264.16 216.976 263.912 204.173 263.912 204.173L263.965 183.303V180.583L272.429 180.644C272.483 181.567 272.605 182.486 272.795 183.392C273.098 184.956 273.492 186.501 273.974 188.021C275.465 192.781 274.846 200.753 272.81 206.485Z" fill="#FFB0B1"/>
<path opacity="0.1" d="M272.315 220.686C272.315 220.686 270.09 225.687 269.904 225.877C269.718 226.066 263.355 229.898 263.355 229.898L258.908 232.46C258.908 232.46 254.395 230.509 256.559 229.837C257.001 229.662 257.399 229.394 257.725 229.052L257.917 230.386L259.4 230.325L272.089 219.062C272.2 220.069 272.315 220.686 272.315 220.686Z" fill="black"/>
<path d="M272.16 219.345L259.4 230.686L257.918 230.747L257.608 228.609C257.608 228.609 255.015 231.901 249.252 231.718C249.252 231.718 245.792 233.974 250.92 234.096C256.048 234.218 262.597 233.913 262.597 233.913C262.597 233.913 267.171 226.89 271 227.806V233.11H272.176V227.757C272.723 227.394 273.189 226.926 273.548 226.38C273.906 225.834 274.149 225.223 274.262 224.582C274.364 223.922 274.292 223.247 274.053 222.623C273.814 221.998 273.416 221.445 272.897 221.016C272.665 220.801 272.481 220.543 272.354 220.256C272.227 219.968 272.161 219.659 272.16 219.345Z" fill="#1D2366"/>
<path d="M302.159 213.007C301.336 215.907 301.785 217.541 302.348 218.417V218.436C303.07 219.518 303.573 220.728 303.827 221.999L303.877 222.274L298.071 230.625L294.92 231.846C294.92 231.846 289.854 230.139 290.779 229.651C291.011 229.532 291.373 228.896 291.788 228.02C293.026 225.379 294.734 220.506 294.734 220.506V220.466C294.914 218.454 295.199 216.448 295.514 214.451C296.081 210.857 295.041 202.036 295.041 202.036C295.041 202.036 294.669 191.309 293.865 188.87C293.502 187.629 293.26 186.357 293.144 185.071C292.977 183.545 292.939 182.287 292.939 182.287C292.939 182.287 296.276 177.707 302.391 182.653C302.88 183.048 303.311 183.508 303.669 184.021C307.894 189.951 304.493 203.013 304.493 203.013C304.493 203.013 303.642 207.764 302.159 213.007Z" fill="#FFB0B1"/>
<path opacity="0.1" d="M303.886 222.274L298.08 230.625L294.929 231.846C294.929 231.846 289.863 230.139 290.788 229.651C291.021 229.532 291.383 228.896 291.797 228.02C293.942 228.002 295.053 230.017 295.053 230.017L297.771 229.59C297.771 229.59 301.354 222.64 302.159 222.216C302.964 221.791 302.283 219.043 302.283 219.043V218.344C302.305 218.368 302.323 218.396 302.348 218.42V218.439C303.07 219.521 303.573 220.731 303.827 222.002L303.886 222.274Z" fill="black"/>
<path d="M295.239 230.197C295.239 230.197 293.692 227.394 290.727 228.429C290.727 228.429 289.058 231.788 287.39 232.331C285.722 232.875 286.279 234.707 290.049 234.038C293.818 233.37 299.501 232.817 299.501 232.817L299.748 229.4L303.58 224.585C303.58 224.585 305.864 222.542 302.466 218.521V219.22C302.466 219.22 303.147 221.968 302.342 222.393C301.537 222.817 297.966 229.77 297.966 229.77L295.239 230.197Z" fill="#1D2366"/>
<path opacity="0.1" d="M272.439 180.638C272.492 181.561 272.614 182.48 272.804 183.386C269.319 182.882 266.085 183.132 263.965 183.297V180.577L272.439 180.638Z" fill="black"/>
<path opacity="0.1" d="M304.013 184.781C304.013 184.781 299.061 185.019 293.156 185.068C292.989 183.542 292.952 182.284 292.952 182.284C292.952 182.284 296.288 177.703 302.404 182.65C302.893 183.044 303.323 183.505 303.682 184.018C303.778 184.278 303.888 184.533 304.013 184.781Z" fill="black"/>
<path d="M304.013 184.232C304.013 184.232 282.324 185.267 275.713 183.438C269.103 181.609 262.551 183.193 261.563 182.769C260.576 182.345 261.378 175.697 262.244 174.052C263.111 172.406 267.865 155.762 267.865 155.762L272.439 132.232L277.258 130.923L277.598 130.828L285.995 128.544L292.147 126.868C292.147 126.868 304.381 173.99 303.332 177.465C302.951 178.796 302.89 180.196 303.153 181.554C303.313 182.481 303.603 183.382 304.013 184.232Z" fill="#1D2366"/>
<path d="M256.494 116.141C256.494 116.141 252.161 120.721 255.442 123.274C258.722 125.827 260.879 123.518 260.879 123.518L256.494 116.141Z" fill="#C7DAF5"/>
<path opacity="0.1" d="M256.494 116.141C256.494 116.141 252.161 120.721 255.442 123.274C258.722 125.827 260.879 123.518 260.879 123.518L256.494 116.141Z" fill="black"/>
<path d="M291.5 86.0289C291.5 86.0289 290.993 86.5052 290.228 87.2075C289.139 88.2121 287.526 89.6807 286.097 90.9113C284.116 92.612 282.482 93.8608 283.067 92.7952C283.652 91.7296 283.54 89.8731 283.249 88.1357C283.228 88.0197 283.209 87.9037 283.187 87.7907C282.946 86.5147 282.627 85.2544 282.231 84.0167C282.231 84.0167 285.431 79.9374 287.201 78.3283C287.861 77.7176 288.322 77.4673 288.35 77.8917C288.381 78.4627 288.814 79.7237 289.352 81.0611C289.368 81.1038 289.383 81.1435 289.402 81.1863C289.761 82.1023 290.166 83.0427 290.522 83.8549C291.067 85.1007 291.5 86.0289 291.5 86.0289Z" fill="#FFB0B1"/>
<path opacity="0.1" d="M289.402 81.1863C289.101 82.7821 288.371 84.269 287.289 85.4915C286.207 86.714 284.812 87.6272 283.249 88.1358C283.003 86.742 282.663 85.3659 282.231 84.0168C282.231 84.0168 288.257 76.3376 288.35 77.8917C288.371 78.481 288.842 79.7879 289.402 81.1863Z" fill="black"/>
<path opacity="0.1" d="M282.649 90.1875L283.429 89.1035C283.429 89.1035 283.946 92.2119 285.846 90.8409C287.746 89.4699 287.839 101.158 287.839 101.158L285.799 131.243L271.062 130.373L271.479 115.836L273.147 108.508L277.273 97.8545L279.727 94.3339L282.649 90.1875Z" fill="black"/>
<path d="M287.839 101.345L285.982 128.547L285.787 131.43L277.57 130.944L277.261 130.926L271.071 130.559L271.489 116.019L273.157 108.691L277.282 98.0378L279.737 94.5173L282.658 90.3555L283.438 89.2747C283.438 89.2747 283.955 92.383 285.855 91.012L285.895 90.9845C287.752 89.8243 287.839 101.345 287.839 101.345Z" fill="#1D2366"/>
<path d="M273.364 106.145C273.364 106.145 272.624 107.671 271.139 107.424C269.653 107.177 269.656 112.92 269.656 112.92C269.656 112.92 268.669 113.836 267.988 113.042C267.307 112.248 265.512 114.932 265.512 114.932L254.265 115.421C254.265 115.421 259.27 117.677 258.289 124.504C258.289 124.504 275.28 123.466 275.837 121.882C276.394 120.297 273.364 106.145 273.364 106.145Z" fill="white"/>
<path opacity="0.03" d="M273.364 106.145C273.364 106.145 272.624 107.671 271.139 107.424C269.653 107.177 269.656 112.92 269.656 112.92C269.656 112.92 268.669 113.836 267.988 113.042C267.307 112.248 265.512 114.932 265.512 114.932L254.265 115.421C254.265 115.421 259.27 117.677 258.289 124.504C258.289 124.504 275.28 123.466 275.837 121.882C276.394 120.297 273.364 106.145 273.364 106.145Z" fill="black"/>
<path d="M240.679 119.008L243.644 121.506L268.05 126.565L265.023 123.518L240.679 119.008Z" fill="white"/>
<path d="M282.695 91.1493C282.29 91.76 281.129 94.8867 280.16 97.6164C279.353 99.8912 278.678 101.891 278.678 101.891C278.678 101.891 277.103 112.01 276.298 113.839C275.493 115.668 275.93 122.801 275.93 122.801L272.931 140.416C272.931 140.416 271.572 149.499 269.474 154.925C267.403 160.266 265.098 162.769 265.026 162.849C265.955 161.609 271.015 137.2 271.015 137.2L272.686 106.416C272.686 106.416 272.931 103.491 273.178 100.99C273.426 98.4897 278.44 95.076 278.44 95.076L283.274 88.2944C283.76 88.9356 283.435 90.0532 282.695 91.1493Z" fill="white"/>
<path d="M270.09 130.712C270.09 130.712 262.971 130.407 259.524 126.321C256.076 122.236 267.493 124.691 267.493 124.691L270.461 125.363L270.09 130.712Z" fill="#FFB0B1"/>
<path opacity="0.1" d="M303.332 177.468C302.951 178.799 302.89 180.199 303.153 181.557C295.388 182.1 287.081 180.03 287.081 180.03C285.533 181.435 281.457 183.505 281.457 183.505L279.235 156.33C277.815 152.666 277.258 133.469 277.258 133.469C277.258 133.469 277.384 132.465 277.567 130.959C277.567 130.923 277.567 130.883 277.583 130.846C278.137 126.642 279.235 118.749 279.774 117.683C280.516 116.218 277.49 112.319 277.49 112.319L278.867 100.731L279.034 99.3325C281.937 98.0532 284.162 93.9677 284.162 93.9677L285.871 91.0151C287.728 89.8396 287.824 101.36 287.824 101.36L285.967 128.562L292.119 126.886C292.119 126.886 304.381 173.994 303.332 177.468Z" fill="black"/>
<path d="M311.302 179.346C302.837 183.493 287.452 179.651 287.452 179.651C285.905 181.056 281.829 183.126 281.829 183.126L279.603 155.951C278.186 152.287 277.629 133.091 277.629 133.091C277.629 133.091 279.418 118.767 280.161 117.305C280.377 116.877 280.272 116.242 280.015 115.558C278.752 112.303 278.288 108.799 278.66 105.332L279.254 100.352L279.418 98.9568C282.324 97.6744 284.549 93.589 284.549 93.589L286.097 90.9142L288.944 85.9861L290.293 83.6533L290.522 83.8579L292.271 85.4212C292.271 85.4212 293.014 86.0319 294.128 86.9479C296.551 88.9631 300.739 92.5112 302.899 94.6821C304.799 96.5935 305.4 104.029 305.573 109.625C305.687 113.311 305.619 116.199 305.619 116.199C303.704 119.311 308.714 144.29 308.714 144.29C309.881 149.118 311.302 179.346 311.302 179.346Z" fill="white"/>
<path opacity="0.03" d="M295.053 93.5281C295.053 93.5281 289.244 104.438 289.919 108.584C290.593 112.731 292.512 117.424 291.587 118.52C291.269 118.935 290.858 119.272 290.386 119.505C289.914 119.737 289.394 119.859 288.867 119.86C287.938 119.921 285.462 121.628 285.462 121.812C285.462 121.995 283.175 121.995 281.129 122.85C279.083 123.705 276.063 124.19 276.063 124.19C276.063 124.19 270.183 124.007 269.635 124.557C269.087 125.106 268.524 128.395 269.697 131.017C270.87 133.64 272.173 135.598 273.157 135.955C274.141 136.312 280.386 134.248 285.453 133.759C290.519 133.271 296.019 129.311 296.019 129.311C296.019 129.311 302.076 127.173 303.137 123.579C304.199 119.986 301.84 100.233 301.84 100.233C301.84 100.233 300.058 91.0274 295.053 93.5281Z" fill="black"/>
<path opacity="0.03" d="M294.31 92.612C294.31 92.612 288.501 103.525 289.182 107.668C289.863 111.812 291.776 116.508 290.847 117.607C290.53 118.023 290.12 118.36 289.648 118.593C289.177 118.825 288.657 118.947 288.13 118.947C287.201 119.008 284.725 120.715 284.725 120.898C284.725 121.082 282.438 121.082 280.393 121.934C278.347 122.785 275.326 123.274 275.326 123.274C275.326 123.274 269.446 123.091 268.901 123.64C268.356 124.19 267.787 127.482 268.963 130.101C270.139 132.721 271.439 134.681 272.423 135.039C273.407 135.396 279.653 133.332 284.719 132.846C289.786 132.361 295.285 128.394 295.285 128.394C295.285 128.394 301.339 126.257 302.388 122.666C303.437 119.076 301.091 99.3172 301.091 99.3172C301.091 99.3172 299.315 90.1143 294.31 92.612Z" fill="black"/>
<path d="M294.871 92.9784C294.871 92.9784 289.062 103.891 289.743 108.035C290.423 112.178 292.336 116.874 291.411 117.97C291.094 118.387 290.683 118.725 290.211 118.959C289.739 119.192 289.218 119.313 288.69 119.314C287.762 119.375 285.286 121.082 285.286 121.262C285.286 121.442 283.002 121.445 280.953 122.3C278.904 123.155 275.887 123.64 275.887 123.64C275.887 123.64 270.006 123.457 269.458 124.007C268.911 124.556 268.347 127.848 269.52 130.468C270.693 133.088 271.996 135.048 272.98 135.405C273.965 135.762 280.21 133.698 285.277 133.21C290.343 132.721 295.843 128.761 295.843 128.761C295.843 128.761 301.899 126.624 302.961 123.03C304.022 119.436 301.68 99.6836 301.68 99.6836C301.68 99.6836 299.872 90.493 294.871 92.9784Z" fill="white"/>
<path opacity="0.1" d="M294.744 122.248C294.744 122.248 290.101 121.332 291.717 122.859C293.332 124.386 293.323 125.723 295.301 125.662C297.279 125.601 294.744 122.248 294.744 122.248Z" fill="black"/>
<path opacity="0.1" d="M302.589 155.096C302.589 155.096 300.491 156.498 304.505 159.728C308.519 162.959 302.589 155.096 302.589 155.096Z" fill="black"/>
<path opacity="0.1" d="M298.585 166.617C298.585 166.8 297.842 173.334 300.621 174.968C303.4 176.601 298.585 166.617 298.585 166.617Z" fill="black"/>
<path d="M254.457 115.406C252.217 115.482 247.376 116.157 249.886 120.776C252.105 124.865 255.835 122.132 257.933 120.059C257.421 118.126 256.177 116.46 254.457 115.406Z" fill="#FFB0B1"/>
<path d="M257.961 120.021L258.054 119.927L257.961 120.021Z" fill="#FFB0B1"/>
<path opacity="0.1" d="M294.128 87.1342C291.751 88.7372 289.758 90.0899 289.368 90.3708C288.303 91.1494 286.273 95.7203 284.964 98.0531C283.921 99.9309 280.532 100.413 279.254 100.532L279.418 99.137C282.324 97.8546 284.549 93.7692 284.549 93.7692L290.293 83.8335L292.271 85.6075C292.271 85.6075 293.014 86.2182 294.128 87.1342Z" fill="black"/>
<path d="M294.128 86.9511C291.751 88.5541 289.758 89.9068 289.368 90.1907C288.303 90.9663 286.273 95.5372 284.964 97.87C283.921 99.7478 280.532 100.23 279.254 100.349L279.418 98.9539C282.324 97.6715 284.549 93.5861 284.549 93.5861L290.293 83.6504L292.271 85.4183C292.271 85.4183 293.014 86.0229 294.128 86.9511Z" fill="#DCE7FF"/>
<path d="M289.554 79.171C289.555 81.0039 288.991 82.7939 287.938 84.3037C286.694 86.0888 284.842 87.3748 282.719 87.9283C280.596 88.4818 278.343 88.2661 276.367 87.3205C274.392 86.3748 272.825 84.7618 271.952 82.7741C271.078 80.7864 270.956 78.5557 271.608 76.4868C272.259 74.4179 273.64 72.6478 275.501 71.4977C277.362 70.3477 279.579 69.8938 281.75 70.2185C283.921 70.5433 285.902 71.625 287.334 73.2676C288.766 74.9101 289.553 77.0046 289.554 79.171Z" fill="#FFB0B1"/>
<path opacity="0.1" d="M305.573 109.628C304.316 108.866 303.293 107.781 302.611 106.49C302.094 105.482 301.751 104.319 300.869 103.604C300.073 102.963 299.012 102.807 298.021 102.52C294.766 101.571 292.036 98.6393 291.934 95.2928C291.884 93.7173 292.382 92.1448 292.157 90.5845C292.028 89.7015 291.672 88.8657 291.123 88.1571C290.85 87.8182 290.551 87.5007 290.228 87.2075C289.795 86.8044 289.34 86.4136 288.944 85.9861C288.694 85.7215 288.476 85.4295 288.294 85.1159C288.147 84.8593 288.028 84.5881 287.938 84.3068C287.319 82.4381 287.882 80.2214 287.202 78.3313L287.164 78.2275C286.908 77.5558 286.385 76.884 285.657 76.8321C284.93 76.7802 284.308 77.3756 283.615 77.6413C282.163 78.197 280.597 77.2504 279.387 76.2856C278.177 75.3207 276.812 74.2184 275.274 74.4322C274.256 74.5757 273.451 75.2596 272.513 75.6138C272.301 75.6947 272.083 75.757 271.86 75.8001C272.654 73.8475 274.112 72.2285 275.984 71.2213C277.856 70.2141 280.025 69.8815 282.119 70.2807C284.212 70.68 286.1 71.786 287.456 73.409C288.813 75.0319 289.555 77.0703 289.554 79.1741C289.555 79.8093 289.487 80.4429 289.353 81.0641C289.368 81.1068 289.383 81.1465 289.402 81.1893C289.761 82.1053 290.166 83.0457 290.522 83.8579L292.271 85.4213C292.271 85.4213 293.014 86.0319 294.128 86.948C296.551 88.9632 300.739 92.5112 302.899 94.6822C304.799 96.5997 305.393 104.032 305.573 109.628Z" fill="black"/>
<path d="M272.405 70.0352C272.847 69.1467 273.067 68.1513 273.596 67.3086C274.373 66.0872 275.729 65.3055 277.121 64.8323C280.758 63.5957 288.443 61.8003 290.739 64.8323C291.191 65.4429 291.565 66.1208 292.19 66.5422C292.667 66.8628 293.243 67.0002 293.766 67.2414C295.23 67.9192 296.164 69.3971 296.663 70.9054C297.161 72.4138 297.309 74.0321 297.675 75.5863C298.142 77.5801 298.962 79.4702 299.779 81.348C300.742 83.5647 301.763 85.8639 303.62 87.4303C306.155 89.5677 306.715 92.5936 309.067 94.9386C311.852 97.7232 311.763 102.319 310.327 105.967C310.138 106.447 309.924 106.947 309.999 107.457C310.073 107.967 310.457 108.431 310.819 108.838L312.341 110.532C308.739 111.39 304.663 109.534 302.986 106.276C302.469 105.268 302.125 104.108 301.24 103.39C300.448 102.749 299.383 102.596 298.396 102.309C295.14 101.357 292.41 98.4225 292.308 95.076C292.259 93.5035 292.757 91.931 292.531 90.3738C292.405 89.4848 292.048 88.6432 291.494 87.9311C290.643 86.8349 289.359 86.099 288.665 84.8777C287.492 82.835 288.384 80.1816 287.539 77.9893C287.279 77.3175 286.759 76.6458 286.032 76.5939C285.304 76.542 284.682 77.1374 283.986 77.403C282.537 77.9587 280.971 77.0152 279.761 76.0473C278.551 75.0794 277.186 73.9802 275.645 74.197C274.627 74.3374 273.825 75.0214 272.888 75.3786C272.194 75.6412 270.789 75.8763 270.183 75.2992C268.901 74.1359 271.869 71.1222 272.405 70.0352Z" fill="#591D4B"/>
<path opacity="0.1" d="M303.846 105.268C303.326 104.261 302.986 103.1 302.1 102.386C301.308 101.745 300.243 101.589 299.253 101.302C296 100.352 293.271 97.4181 293.165 94.0716C293.116 92.4991 293.614 90.9235 293.391 89.3663C293.262 88.4831 292.905 87.6473 292.355 86.9389C291.5 85.8427 290.216 85.1069 289.526 83.8855C288.353 81.8459 289.244 79.1925 288.396 76.9971C288.139 76.3284 287.616 75.6567 286.892 75.6017C286.168 75.5467 285.54 76.1483 284.846 76.4139C283.398 76.9696 281.829 76.0231 280.622 75.0582C279.415 74.0933 278.044 72.9911 276.506 73.2048C275.487 73.3483 274.683 74.0323 273.748 74.3865C273.055 74.649 271.647 74.8872 271.04 74.3101C269.765 73.0888 272.733 70.0812 273.265 69.0003C273.708 68.1087 273.928 67.1164 274.46 66.2736C274.488 66.2278 274.519 66.182 274.55 66.1362C274.151 66.4617 273.808 66.8471 273.531 67.2782C273.002 68.1209 272.782 69.1102 272.34 70.0049C271.804 71.0858 268.836 74.1025 270.115 75.3147C270.734 75.8948 272.126 75.6567 272.82 75.3941C273.748 75.0368 274.559 74.3529 275.577 74.2124C277.125 73.9956 278.486 75.0979 279.693 76.0628C280.9 77.0276 282.479 77.9742 283.921 77.4185C284.614 77.1528 285.221 76.5544 285.964 76.6093C286.706 76.6643 287.202 77.333 287.471 78.0047C288.316 80.197 287.424 82.8504 288.597 84.8931C289.291 86.0931 290.575 86.8442 291.426 87.9465C291.98 88.6586 292.337 89.5002 292.463 90.3892C292.689 91.9464 292.191 93.5189 292.24 95.0914C292.342 98.4501 295.072 101.372 298.328 102.325C299.309 102.612 300.38 102.765 301.172 103.406C302.06 104.123 302.41 105.284 302.918 106.291C304.595 109.549 308.671 111.406 312.273 110.548L311.555 109.748C308.433 109.793 305.273 108.041 303.846 105.268Z" fill="black"/>
<path opacity="0.1" d="M282.51 91.3327C282.104 91.9434 280.944 95.0701 279.975 97.7998C279.068 97.4517 278.245 95.2319 278.245 95.2319L283.079 88.4473C283.574 89.119 283.249 90.2335 282.51 91.3327Z" fill="black"/>
<path d="M282.695 91.1495C282.29 91.7601 281.129 94.8868 280.16 97.6165C279.254 97.2715 278.43 95.0486 278.43 95.0486L283.265 88.2671C283.76 88.9358 283.435 90.0533 282.695 91.1495Z" fill="#DCE7FF"/>
<path d="M254.587 122.343L251.907 114.004C251.875 113.906 251.863 113.803 251.872 113.701C251.881 113.599 251.91 113.5 251.958 113.409C252.005 113.318 252.071 113.237 252.15 113.171C252.23 113.105 252.322 113.055 252.421 113.024C252.62 112.962 252.836 112.981 253.022 113.076C253.207 113.171 253.347 113.334 253.411 113.531L256.091 121.86L255.825 123.604L254.587 122.343Z" fill="#BE8B87"/>
<path opacity="0.1" d="M252.161 113.271C252.361 113.209 252.578 113.227 252.764 113.322C252.95 113.417 253.09 113.581 253.154 113.778L255.835 122.108L255.633 123.414L255.828 123.616L256.094 121.872L253.399 113.543C253.335 113.347 253.195 113.183 253.009 113.088C252.824 112.993 252.608 112.975 252.408 113.036C252.241 113.09 252.096 113.197 251.997 113.341C252.049 113.313 252.104 113.29 252.161 113.271Z" fill="white"/>
<path d="M254.587 122.343L256.092 121.873L255.872 123.302L255.825 123.616L255.386 123.164L254.587 122.343Z" fill="#EFC8C4"/>
<path d="M255.386 123.164C255.412 123.131 255.445 123.104 255.482 123.085C255.503 123.071 255.529 123.064 255.554 123.064C255.58 123.064 255.605 123.071 255.627 123.085C255.648 123.11 255.666 123.138 255.68 123.167C255.7 123.201 255.728 123.23 255.761 123.251C255.794 123.273 255.832 123.287 255.872 123.292L255.825 123.598L255.386 123.164Z" fill="#727A9C"/>
<path d="M251.892 116.966C251.892 116.966 257.267 116.935 256.002 119.191C254.736 121.448 252.758 121.72 252.758 121.72L251.892 116.966Z" fill="#FFB0B1"/>
<path d="M218.457 15.7004H218.225C208.99 15.7004 200.823 20.5217 196.125 27.6361C191.426 20.5217 183.259 15.7004 174.024 15.7004H173.792C166.861 15.7656 160.236 18.5266 155.357 23.3836C150.478 28.2405 147.739 34.8008 147.736 41.6389C147.736 50.1303 151.505 62.1789 158.856 72.0933C172.86 90.9845 196.125 107.512 196.125 107.512C196.125 107.512 219.389 90.9875 233.39 72.0933C240.744 62.1789 244.51 50.1303 244.51 41.6389C244.507 34.8013 241.768 28.2415 236.89 23.3846C232.011 18.5278 225.388 15.7664 218.457 15.7004ZM215.137 73.5467C214.085 73.5427 213.059 73.2251 212.193 72.6355C211.328 72.0459 210.663 71.2119 210.287 70.2429H204.765C204.402 70.2407 204.048 70.1265 203.753 69.9163C203.459 69.7061 203.238 69.4104 203.122 69.0704L201.426 64.0293L196.06 82.5297C195.955 82.8858 195.736 83.1989 195.436 83.4219C195.136 83.6449 194.77 83.7657 194.394 83.7663H194.286C193.894 83.7476 193.52 83.5967 193.227 83.3389C192.934 83.081 192.74 82.7318 192.677 82.3495L187.146 49.5319L183.104 68.9513C183.012 69.3202 182.796 69.6479 182.493 69.882C182.189 70.1161 181.815 70.2432 181.43 70.2429H173.652C173.419 70.2526 173.186 70.2157 172.968 70.1344C172.75 70.0531 172.55 69.9291 172.382 69.7698C172.214 69.6105 172.08 69.4192 171.988 69.2074C171.896 68.9957 171.849 68.7678 171.849 68.5376C171.849 68.3074 171.896 68.0795 171.988 67.8678C172.08 67.656 172.214 67.4647 172.382 67.3054C172.55 67.1461 172.75 67.0221 172.968 66.9408C173.186 66.8595 173.419 66.8226 173.652 66.8323H180.068L185.794 40.7229C185.888 40.3368 186.115 39.995 186.436 39.7558C186.757 39.5166 187.152 39.3949 187.554 39.4115C187.957 39.4281 188.34 39.582 188.64 39.8468C188.94 40.1116 189.137 40.4709 189.198 40.8633L194.846 74.3405L199.656 57.7882C199.756 57.4396 199.968 57.1323 200.259 56.9121C200.551 56.692 200.907 56.5709 201.274 56.5668H201.308C201.672 56.5669 202.027 56.6804 202.321 56.8909C202.616 57.1015 202.835 57.3984 202.949 57.7393L206.016 66.8415H210.219C210.518 65.9458 211.061 65.149 211.79 64.539C212.519 63.929 213.405 63.5295 214.349 63.3847C215.293 63.2398 216.26 63.3553 217.142 63.7182C218.024 64.0811 218.788 64.6774 219.348 65.4413C219.908 66.2052 220.244 67.107 220.317 68.0472C220.391 68.9873 220.2 69.9293 219.765 70.769C219.331 71.6088 218.669 72.3137 217.854 72.806C217.039 73.2983 216.102 73.5589 215.146 73.5589L215.137 73.5467Z" fill="#27B4EF"/>
</g>
<defs>
<linearGradient id="paint0_linear_1_253" x1="110.281" y1="236.597" x2="110.281" y2="48.7105" gradientUnits="userSpaceOnUse">
<stop stop-color="#808080" stop-opacity="0.25"/>
<stop offset="0.54" stop-color="#808080" stop-opacity="0.12"/>
<stop offset="1" stop-color="#808080" stop-opacity="0.1"/>
</linearGradient>
<linearGradient id="paint1_linear_1_253" x1="69083.2" y1="141763" x2="69083.2" y2="45319.1" gradientUnits="userSpaceOnUse">
<stop stop-color="#808080" stop-opacity="0.25"/>
<stop offset="0.54" stop-color="#808080" stop-opacity="0.12"/>
<stop offset="1" stop-color="#808080" stop-opacity="0.1"/>
</linearGradient>
<clipPath id="clip0_1_253">
<rect width="342" height="239" fill="white"/>
</clipPath>
</defs>
</svg>
